<?xml version="1.0" encoding="UTF-8" standalone="no"?>
<!-- Created with Inkscape (http://www.inkscape.org/) -->

<svg
   width="180mm"
   height="167mm"
   viewBox="0 0 180 167"
   version="1.1"
   id="svg1"
   xml:space="preserve"
   inkscape:version="1.3.2 (091e20e, 2023-11-25, custom)"
   sodipodi:docname="Logo ATV.svg"
   inkscape:export-filename="..\..\..\Desktop\Talento tech\Repuestos\assets\img\TVA Parts.svg"
   inkscape:export-xdpi="96"
   inkscape:export-ydpi="96"
   xmlns:inkscape="http://www.inkscape.org/namespaces/inkscape"
   xmlns:sodipodi="http://sodipodi.sourceforge.net/DTD/sodipodi-0.dtd"
   xmlns="http://www.w3.org/2000/svg"
   xmlns:svg="http://www.w3.org/2000/svg"><sodipodi:namedview
     id="namedview1"
     pagecolor="#505050"
     bordercolor="#eeeeee"
     borderopacity="1"
     inkscape:showpageshadow="0"
     inkscape:pageopacity="0"
     inkscape:pagecheckerboard="0"
     inkscape:deskcolor="#505050"
     inkscape:document-units="mm"
     inkscape:zoom="0.32063344"
     inkscape:cx="397.65035"
     inkscape:cy="562.94814"
     inkscape:window-width="1366"
     inkscape:window-height="705"
     inkscape:window-x="-8"
     inkscape:window-y="-8"
     inkscape:window-maximized="1"
     inkscape:current-layer="layer1" /><defs
     id="defs1" /><g
     inkscape:label="Capa 1"
     inkscape:groupmode="layer"
     id="layer1"><g
       id="g418"
       transform="matrix(1.1243696,0,0,1.1243696,-20.350311,-101.77052)"><g
         id="g392"
         transform="translate(-7.0019649,-7.0019646)"
         style="fill:#00112b"><path
           style="display:inline;fill:#00112b"
           d="M 5.0702677,265.29476 H 4.7552303 l 0.042166,-8.19965 0.042165,-8.19965 0.1721358,-0.10638 0.1721359,-0.10639 -0.2005013,-0.24159 -0.2005012,-0.24159 0.1174314,-0.72364 0.1174315,-0.72365 0.1536326,0.095 0.1536325,0.0949 -0.098456,0.3765 -0.098456,0.3765 0.3636631,0.0938 0.3636631,0.0938 -0.3231659,0.0229 -0.3231659,0.0229 -0.027849,1.8618 -0.027849,1.8618 0.3232801,0.18091 0.3232802,0.18092 -0.3176176,0.12188 -0.3176177,0.12188 v 0.38642 0.38641 l 0.3453528,0.0902 0.3453527,0.0902 -0.3415775,0.0229 -0.3415774,0.0229 0.1243884,0.90752 0.1243884,0.90751 -0.2335199,0.14432 -0.2335198,0.14432 0.1264698,0.32958 0.1264698,0.32957 H 5.4208439 5.634793 l -0.375622,0.27467 -0.3756219,0.27466 0.2615918,0.3152 0.2615919,0.3152 0.1749839,-0.10815 0.174984,-0.10815 v 0.30767 0.30766 H 5.4606841 5.1646674 v 0.1809 0.1809 l 0.2466806,0.0881 0.2466805,0.0881 -0.1587385,0.16931 -0.1587386,0.16931 -0.1835923,-0.2903 -0.1835923,-0.2903 -0.00302,0.16098 -0.00302,0.16098 0.2072459,0.38724 0.2072458,0.38725 0.187443,-0.11585 0.187443,-0.11585 v 0.22064 0.22064 l 0.2278358,-0.14081 0.2278358,-0.14081 -0.146153,0.23648 -0.1461529,0.23648 0.2384975,0.28737 0.2384975,0.28737 H 6.1919986 5.9869358 l -0.099538,-0.24668 -0.099538,-0.24668 -0.01558,0.30589 -0.01558,0.30588 0.2466805,0.26586 0.2466805,0.26586 -0.3139126,-0.10946 -0.3139125,-0.10946 -0.2459942,0.15203 -0.2459941,0.15203 0.00977,2.10598 0.00977,2.10598 0.1177568,0.19054 0.1177568,0.19053 z m 0.5219232,-5.57201 0.158466,-0.24965 0.00302,-0.14801 0.00302,-0.148 H 5.4606841 5.1646674 v 0.26312 0.26313 l 0.1345287,0.13453 0.1345287,0.13452 z m -0.4933049,-2.1902 0.1315629,-0.13156 -0.1315629,-0.13157 -0.131563,-0.13156 v 0.26313 0.26312 z m 0,-5.3283 0.1315629,-0.13156 -0.1315629,-0.13157 -0.131563,-0.13156 v 0.26313 0.26312 z m 0.6694613,12.10379 H 5.5826496 l -0.1205685,-0.19508 -0.1205685,-0.19509 0.3062662,0.11753 0.3062663,0.11752 v 0.0776 0.0776 z m 0.4817144,-0.19734 h -0.098672 v -0.0987 -0.0987 h 0.098672 0.098672 v 0.0987 0.0987 z m 0.986722,-1.38142 h -0.098672 v -0.0987 -0.0987 h 0.098672 0.098672 v 0.0987 0.0987 z m -1.5272205,-1.04429 -0.085519,0.15624 0.066328,-0.26282 0.066329,-0.26282 v -0.0966 -0.0966 l 0.2960166,0.29601 0.2960166,0.29602 v 0.13693 0.13693 L 6.0719087,261.75854 5.795083,261.52879 Z m 0.9351873,-2.90259 h -0.098672 v -0.0987 -0.0987 h 0.098672 0.098672 v 0.0987 0.0987 z m 1.4800831,0 H 7.8617077 l 0.1315629,-0.13157 0.131563,-0.13156 0.1315629,0.13156 0.1315629,0.13157 z m -2.0721163,-0.19735 h -0.098672 v -0.0987 -0.0987 h 0.098672 0.098672 v 0.0987 0.0987 z m -0.493361,-1.7761 H 5.3620118 v -0.19734 -0.19735 h 0.1973445 0.1973444 v 0.19735 0.19734 z m 0.493361,-0.39469 h -0.098672 v -0.0987 -0.0987 h 0.098672 0.098672 v 0.0987 0.0987 z m -0.098672,-0.59203 H 5.7567007 v -0.20899 -0.20899 l 0.1973444,0.12196 0.1973444,0.12197 v 0.087 0.087 z M 5.7567007,255.03285 5.5654,255.32887 v -0.19735 -0.19734 l 0.1913007,-0.29602 0.1913006,-0.29601 v 0.19734 0.19735 z m 0.2960166,-6.70971 h -0.098672 v -0.0987 -0.0987 h 0.098672 0.098672 v 0.0987 0.0987 z M 4.967323,246.3497 4.7760224,246.64572 v -0.19735 -0.19734 l 0.1913006,-0.29602 0.1913007,-0.29602 v 0.19735 0.19734 z m 0.098672,-1.18407 H 4.967323 v -0.0987 -0.0987 h 0.098672 0.098672 v 0.0987 0.0987 z M 5.035646,244.5736 h -0.04503 l -0.097298,-0.15743 -0.097297,-0.15743 0.1755872,-0.28411 0.1755873,-0.2841 -0.03326,0.44153 -0.03326,0.44154 z m 0.030349,-1.18407 H 4.967323 v -0.0987 -0.0987 h 0.098672 0.098672 v 0.0987 0.0987 z m 98.082025,-0.55546 -0.33441,0.45679 0.14146,-0.49336 0.14145,-0.49336 0.0742,-0.0822 0.0742,-0.0822 0.1188,0.11881 0.1188,0.1188 z m -0.9289,0.0682 -0.086,0.086 -0.23352,-0.23353 -0.23353,-0.23352 v -0.17197 -0.17198 l 0.31951,0.31951 0.31951,0.31951 z m 2.25368,-0.1523 -0.24124,0.0804 v -0.17124 -0.17124 l -0.55584,-0.32834 -0.55583,-0.32834 -0.26949,0.37389 -0.26949,0.37389 -0.18247,-0.11277 -0.18246,-0.11277 0.26775,-0.17267 0.26775,-0.17268 -0.29602,-0.19432 -0.29602,-0.19432 -0.42291,-0.003 -0.42291,-0.003 -0.11978,-0.31215 -0.11979,-0.31216 0.003,-0.13187 0.003,-0.13187 0.1913,0.29602 0.1913,0.29602 0.003,-0.32119 0.003,-0.32119 -0.305,-0.25313 -0.305,-0.25312 0.10146,-0.2644 0.10146,-0.2644 h -0.48717 -0.48716 v -0.19735 -0.19734 h -0.296019 -0.296017 v -0.37855 -0.37855 l -0.119351,-0.31102 -0.119351,-0.31102 -0.179884,0.11117 -0.179885,0.11118 0.09321,0.15081 0.09321,0.15082 H 98.79895 98.514747 l 0.16756,-0.21379 0.167559,-0.21379 0.103252,-0.88805 0.103251,-0.88805 -0.09305,0.24668 -0.09305,0.24668 H 98.68937 98.508471 v -0.33263 -0.33263 l -0.388241,-0.41327 -0.388241,-0.41326 -0.04738,-0.62186 -0.04738,-0.62186 -0.142772,0.0882 -0.142772,0.0882 -0.112505,-0.18203 -0.112505,-0.18204 -0.394492,0.10316 -0.394492,0.10316 v 0.17433 0.17433 h 0.273 0.273 l 0.103213,0.39469 0.103214,0.39469 -0.129533,-0.006 -0.129533,-0.006 -0.361685,-0.49659 -0.361684,-0.4966 0.236037,-0.28441 0.236036,-0.2844 0.174984,0.10814 0.174984,0.10815 v -0.32614 -0.32614 l -0.394689,-0.10321 -0.394689,-0.10321 v -0.33728 -0.33727 l -0.456744,-0.42909 -0.456744,-0.42909 H 94.99299 94.759028 v -0.16013 -0.16013 l -0.402376,-0.4319 -0.402376,-0.4319 h 0.144078 0.144078 l -0.383071,-0.29227 -0.383071,-0.29227 0.296016,-0.21402 0.296017,-0.21402 -0.442783,0.1245 -0.442783,0.12451 0.09648,-0.25959 0.09648,-0.25958 -0.179433,-0.59203 -0.179434,-0.59204 -0.01696,0.24668 -0.01696,0.24668 H 92.785584 92.58824 v -0.42758 -0.42758 l -0.128496,0.1285 -0.128495,0.12849 -0.280828,-0.34228 -0.280828,-0.34229 0.143798,0.27718 0.143798,0.27717 -0.210365,-0.13001 -0.210365,-0.13002 0.08779,-0.54185 0.08779,-0.54184 0.06215,-0.57286 0.06215,-0.57285 -0.266085,0.36389 -0.266085,0.36389 -0.278516,-0.38089 -0.278517,-0.3809 0.07895,-0.12775 0.07895,-0.12774 -0.393283,-0.10285 -0.393284,-0.10285 0.124239,-0.32376 0.124238,-0.32376 -0.370104,-0.29258 -0.370105,-0.29258 0.394689,0.0505 0.394689,0.0505 0.24668,-0.15473 0.246681,-0.15472 -0.003,-0.23504 -0.003,-0.23503 -0.145489,0.22865 -0.14549,0.22865 -0.540272,-0.10328 -0.540272,-0.10328 0.125531,-0.50016 0.125532,-0.50016 -0.209271,0.12934 -0.20927,0.12934 -0.08719,-0.24791 -0.08719,-0.24791 0.161469,-0.43704 0.161469,-0.43704 -0.220296,-0.13615 -0.220295,-0.13615 0.132383,0.2142 0.132383,0.2142 -0.200564,0.12395 -0.200563,0.12396 v -0.24846 -0.24846 l -0.236814,0.23681 -0.236813,0.23681 h -0.157875 -0.157876 v -0.20899 -0.20899 l 0.230881,0.14269 0.230881,0.1427 -0.151276,-0.37773 -0.151276,-0.37773 -0.03582,-0.19734 -0.03582,-0.19734 -0.163109,-0.26125 -0.16311,-0.26125 0.407468,0.25446 0.407467,0.25447 -0.238808,0.15177 -0.238809,0.15177 0.235034,0.003 0.235034,0.003 0.112133,-0.18143 0.112132,-0.18144 -0.317428,-0.31742 -0.317428,-0.31743 0.2154,-0.25954 0.215399,-0.25954 -0.51732,-0.23571 -0.517321,-0.23571 -0.104349,0.10435 -0.104348,0.10435 -0.244466,-0.20289 -0.244465,-0.20289 0.101316,-0.38743 0.101316,-0.38743 h -0.319033 -0.319033 v -0.3566 -0.35659 l -0.542697,-0.22801 -0.542698,-0.228 0.493361,0.0894 0.493362,0.0894 -0.247911,-0.1137 -0.24791,-0.11371 0.125092,-0.2024 0.125091,-0.2024 -0.751743,-0.6688 -0.751743,-0.66879 h 0.233192 0.233193 v -0.21379 -0.21379 l -0.242565,0.0809 -0.242565,0.0808 -0.849262,-0.86146 -0.849262,-0.86146 -0.190912,0.11799 -0.190911,0.11799 v -0.35816 -0.35816 l -0.581314,-0.25731 -0.581313,-0.25732 0.121489,-0.31659 0.121488,-0.3166 -0.23088,0.1427 -0.230881,0.14269 v -0.32176 -0.32176 l -0.272524,-0.27252 -0.272523,-0.27253 -0.110832,0.11084 -0.110832,0.11083 -0.605613,-0.26807 -0.605612,-0.26807 0.09472,-0.24685 0.09473,-0.24685 h -0.388495 -0.388496 v -0.14917 -0.14917 l -0.542697,-0.24007 -0.542697,-0.24008 -0.444025,0.11625 -0.444025,0.11624 v -0.35675 -0.35675 l -0.279881,0.38276 -0.279882,0.38276 -0.145986,-0.14599 -0.145985,-0.14598 -0.230627,0.1914 -0.230627,0.1914 -0.626245,-0.23638 -0.626244,-0.23638 v -0.15408 -0.15408 h -0.296017 -0.296016 v 0.19735 0.19734 h -0.986722 -0.986722 v 0.21065 0.21064 l -0.394689,-0.12527 -0.394689,-0.12527 v 0.21232 0.21231 l -0.389763,-0.24341 -0.389763,-0.24341 -0.241739,0.24174 -0.241739,0.24174 h 0.434158 0.434157 v 0.19734 0.19735 h 0.296017 0.296017 v 0.19734 0.19734 h -0.157876 -0.157876 l -0.221861,-0.22186 -0.221862,-0.22186 -0.557649,0.19047 -0.557648,0.19048 -0.567285,-0.15547 -0.567284,-0.15546 -0.284012,0.28401 -0.284011,0.28401 0.121504,0.1966 0.121504,0.1966 -0.306266,-0.11753 -0.306267,-0.11752 v -0.15979 -0.15978 l 0.246681,-0.0881 0.24668,-0.0881 -0.158738,-0.16931 -0.158739,-0.16931 -0.137278,0.19163 -0.137278,0.19163 -0.639896,0.44885 -0.639897,0.44884 0.04786,-0.44884 0.04786,-0.44885 -0.296017,0.0744 -0.296016,0.0744 -0.238,0.008 -0.238,0.008 0.101968,0.16498 0.101968,0.16499 0.382712,-0.20482 0.382713,-0.20482 v 0.16989 0.16988 l -0.504318,0.47379 -0.504318,0.47378 0.130743,-0.34071 0.130742,-0.34071 h -0.401706 -0.401707 l -0.286619,0.28662 -0.286619,0.28662 -0.122166,-0.12217 -0.122165,-0.12217 v 0.35031 0.3503 l -0.541593,-0.13593 -0.541594,-0.13594 -0.259459,-0.21533 -0.25946,-0.21533 -0.531022,-0.0541 -0.531022,-0.0541 0.346916,0.19735 0.346915,0.19735 0.177378,-0.10962 0.177377,-0.10963 -0.10916,0.41743 -0.10916,0.41743 0.472917,-0.13056 0.472917,-0.13057 -0.328393,0.20709 -0.328392,0.20708 -0.311844,-0.11967 -0.311843,-0.11966 0.12803,-0.20716 0.12803,-0.20716 -0.227835,0.14081 -0.227836,0.14081 v -0.24188 -0.24188 l -0.114661,0.11466 -0.114661,0.11466 0.225106,0.42062 0.225107,0.42061 -0.394284,-0.24623 -0.394283,-0.24624 -0.489785,0.26213 -0.489785,0.26212 0.109467,0.32044 0.109466,0.32044 -0.290827,-0.37304 -0.290828,-0.37304 -0.124217,0.3237 -0.124217,0.32371 H 58.453882 58.053 l -0.02337,0.24668 -0.02337,0.24668 0.01837,0.133 0.01837,0.13301 -0.582774,-0.0738 -0.582774,-0.0738 -0.152266,0.25165 -0.152266,0.25164 -0.378912,0.13981 -0.378911,0.13981 -0.11665,-0.18874 -0.11665,-0.18874 -0.688505,0.16186 -0.688505,0.16186 0.24668,0.0202 0.246681,0.0202 -0.003,0.34535 -0.003,0.34535 -0.144986,-0.19734 -0.144987,-0.19735 -0.24668,-0.0493 -0.246681,-0.0493 v 0.19735 0.19734 h 0.208991 0.208991 l -0.132592,0.21454 -0.132593,0.21454 -0.21454,-0.21454 -0.214539,-0.21454 h -0.178989 -0.178989 l 0.113592,0.29602 0.113592,0.29601 h -0.191151 -0.191151 v -0.16436 -0.16437 l -0.432754,0.0319 -0.432755,0.0319 -0.07705,0.23115 -0.07705,0.23116 h -0.279572 -0.279571 v -0.21144 -0.21144 l -0.308599,0.3086 -0.308599,0.30859 0.114474,0.18523 0.114473,0.18522 -0.222627,0.13759 -0.222627,0.13759 -0.175281,-0.27196 -0.17528,-0.27197 -0.163786,0.25337 -0.163786,0.25336 -0.363836,-0.13961 -0.363836,-0.13962 0.135866,0.35406 0.135866,0.35406 -0.397622,-0.10398 -0.397622,-0.10398 v 0.38786 0.38786 l -0.209779,-0.12965 -0.20978,-0.12965 -0.360171,0.32595 -0.36017,0.32595 -0.416772,0.0314 -0.416772,0.0314 v 0.15535 0.15535 h -0.296016 -0.296017 l -0.01251,0.34535 -0.01251,0.34535 -0.178476,-0.44402 -0.178476,-0.44403 H 45.23202 44.633628 v 0.18484 0.18484 l 0.641369,0.0796 0.64137,0.0796 -0.799245,0.0316 -0.799245,0.0316 -0.221392,0.2214 -0.221392,0.22139 0.09884,0.25757 0.09884,0.25757 -0.410277,-0.10729 -0.410277,-0.10729 v 0.23579 0.2358 l -0.737854,-0.0648 -0.737854,-0.0648 -0.01828,0.19734 -0.01828,0.19735 -0.153312,0.54269 -0.153312,0.5427 H 41.2573 41.08135 v -0.31011 -0.31011 l -0.296017,0.29601 -0.296017,0.29602 v 0.31011 0.31011 h -0.197344 -0.197344 l -0.003,-0.24668 -0.003,-0.24668 -0.172259,0.27197 -0.172259,0.27196 -0.193033,-0.1193 -0.193034,-0.1193 -0.348766,0.38538 -0.348765,0.38538 -0.179649,-0.11103 -0.179648,-0.11103 -0.445241,0.29174 -0.445241,0.29173 -0.65994,-0.0768 -0.65994,-0.0768 -0.260916,-0.21654 -0.260916,-0.21654 -0.253316,0.10175 -0.253316,0.10175 0.324239,0.0156 0.324239,0.0156 0.110313,0.28747 0.110312,0.28747 -0.434551,-0.17514 -0.434552,-0.17514 -0.581741,-0.12589 -0.58174,-0.12589 0.2378,-0.14697 0.237801,-0.14697 -0.524122,-0.45572 -0.524122,-0.45571 0.113163,0.43273 0.113163,0.43274 -0.626512,-0.48297 -0.626512,-0.48296 -0.110437,-0.6656 -0.110438,-0.6656 -0.557156,-0.83872 -0.557156,-0.83871 H 30.88029 30.7962 l 0.14081,0.22784 0.140811,0.22783 -0.185036,-0.11436 -0.185035,-0.11435 0.0065,-0.65618 0.0065,-0.65617 0.261349,0.0542 0.261349,0.0542 -0.138623,-0.2243 -0.138624,-0.2243 0.243696,-0.15061 0.243697,-0.15061 -0.218414,-0.13499 -0.218413,-0.13499 v 0.20899 0.209 H 30.84409 30.671414 v -0.48711 -0.4871 l 0.386923,0.20708 0.386922,0.20707 0.114661,-0.11466 0.114662,-0.11466 h -0.198559 -0.198558 l -0.232228,-0.5427 -0.232229,-0.5427 0.271644,0.34536 0.271643,0.34535 h 0.126252 0.126253 v -0.47692 -0.47691 l -0.24668,-0.0881 -0.246681,-0.0881 0.142028,-0.1526 0.142028,-0.1526 h 0.812799 0.812798 l -0.185194,-0.1211 -0.185195,-0.1211 -0.08774,-0.27311 -0.08774,-0.27311 -0.336543,0.33654 -0.336543,0.33655 v -0.22062 -0.22062 l 0.575447,-0.33026 0.575446,-0.33026 0.08431,-0.79529 0.08431,-0.7953 -0.16812,-0.21964 -0.16812,-0.21964 0.495087,0.0946 0.495087,0.0946 v -0.4177 -0.41769 h 0.274902 0.274903 l 0.119786,-0.31216 0.119786,-0.31215 v -0.0825 -0.0825 H 34.0756 33.582239 v -0.19734 -0.19735 h 0.191151 0.191151 l -0.103925,-0.27082 -0.103924,-0.27082 0.477826,-0.0913 0.477827,-0.0914 -0.07426,0.31283 -0.07426,0.31283 0.182001,0.27869 0.182002,0.27868 0.354057,-0.35406 0.354058,-0.35405 -0.434821,0.138 -0.43482,0.13801 v -0.22912 -0.22912 l 0.394688,-0.10321 0.394689,-0.10321 v -0.15322 -0.15321 l -0.311698,-0.11961 -0.311698,-0.11961 -0.45615,0.11449 -0.456151,0.11448 -0.118077,-0.19105 -0.118078,-0.19106 0.343229,0.0271 0.343229,0.0271 0.06398,-0.67001 0.06398,-0.67001 -0.20568,-0.12711 -0.205681,-0.12712 -0.04828,-0.63362 -0.04828,-0.63362 H 33.92331 33.756295 l 0.134987,-0.21841 0.134987,-0.21842 0.159655,0.25833 0.159655,0.25833 -0.09816,0.15882 -0.09816,0.15883 0.308525,0.11839 0.308525,0.11839 v 0.37358 0.37357 h 0.296016 0.296017 v -0.7737 -0.77369 l 0.592033,-0.13004 0.592033,-0.13003 v -0.18166 -0.18167 h -0.21379 -0.213789 l 0.09045,-0.24668 0.09045,-0.24668 0.203975,0.0433 0.203975,0.0433 -0.0535,-0.48735 -0.0535,-0.48735 h 0.203098 0.203098 l -0.0953,-0.0953 -0.0953,-0.0953 -0.60187,0.17261 -0.60187,0.17262 -0.273109,-0.17297 -0.27311,-0.17297 0.258327,-0.003 0.258328,-0.003 -0.132591,-0.21454 -0.132591,-0.21454 -0.372417,0.0974 -0.372417,0.0974 v -0.17887 -0.17887 l 0.542697,-0.0229 0.542697,-0.0229 -0.357347,-0.0926 -0.357347,-0.0926 0.108938,-0.62459 0.108937,-0.62459 -0.289898,0.69071 -0.289898,0.6907 0.01746,-0.49336 0.01745,-0.49336 -0.02184,-0.44402 -0.02184,-0.44403 h -0.394689 -0.394688 v -0.40633 -0.40634 l 0.197344,0.12197 0.197344,0.12196 v -0.38989 -0.38989 l 0.246681,-0.1133 0.24668,-0.11329 -0.493361,0.12137 -0.493361,0.12136 -0.0233,0.0248 -0.0233,0.0248 -0.329265,0.59204 -0.329266,0.59203 0.114129,-0.42811 0.114129,-0.42811 -0.382665,-0.12145 -0.382665,-0.12146 0.09973,-0.38135 0.09973,-0.38136 0.283054,-0.23492 0.283055,-0.23491 0.228449,0.22845 0.22845,0.22845 -0.483494,0.0229 -0.483494,0.0229 0.345353,0.0902 0.345353,0.0902 v 0.20399 0.20399 l -0.296017,-0.1136 -0.296017,-0.11359 v 0.17004 0.17004 l 0.280894,0.10779 0.280893,0.10778 0.194653,-0.55838 0.194653,-0.55838 -0.218998,-0.219 -0.218999,-0.219 -0.404556,-0.0139 -0.404556,-0.0139 0.341885,-0.1355 0.341885,-0.13551 -0.304104,-0.58616 -0.304105,-0.58616 -0.235125,-0.14949 -0.235125,-0.14949 0.284399,-0.003 0.284399,-0.003 -0.383071,-0.28974 -0.383071,-0.28974 0.260776,-0.006 0.260777,-0.006 0.32009,-0.32009 0.32009,-0.32009 -0.334186,-0.24436 -0.334186,-0.24437 v -0.32359 -0.3236 H 32.20083 32.003486 v 0.33549 0.33548 l -0.246681,-0.26148 -0.24668,-0.26148 0.24668,-0.0905 0.246681,-0.0905 v -0.27957 -0.27957 h 0.111646 0.111646 l 0.381715,0.20429 0.381715,0.20428 v -0.19099 -0.19099 l -0.390626,-0.12397 -0.390625,-0.12398 -0.342629,-0.58003 -0.342629,-0.58002 H 31.34779 31.171881 l 0.113592,0.29601 0.113592,0.29602 h -0.09884 -0.09884 l -0.163878,-0.443 -0.163878,-0.44301 0.294323,-0.44919 0.294323,-0.44919 -0.451741,-0.3918 -0.451742,-0.39179 0.157329,-0.14676 0.157328,-0.14675 0.0881,0.24668 0.0881,0.24668 h 0.279571 0.279571 v -0.19735 -0.19734 h -0.21144 -0.211441 l -0.28192,-0.28192 -0.281921,-0.28192 v -0.60613 -0.60613 h -0.204288 -0.204287 l 0.204287,-0.38172 0.204288,-0.38171 v -0.40766 -0.40767 l 0.246681,-0.003 0.24668,-0.003 -0.296017,-0.19807 -0.296016,-0.19808 0.354087,-0.27107 0.354087,-0.27107 -0.485441,-0.38185 -0.48544,-0.38185 0.145882,-0.23604 0.145883,-0.23604 0.36141,0.39935 0.361409,0.39935 h 0.286301 0.286301 l -0.633774,-0.59203 -0.633773,-0.59203 0.168878,-0.0234 0.168879,-0.0234 0.162676,0.0283 0.162677,0.0283 -0.11966,-0.19362 -0.119661,-0.19362 -0.339033,0.12701 -0.339033,0.127 0.269041,-0.33079 0.269041,-0.3308 0.174984,0.10815 0.174984,0.10815 v -0.5099 -0.50989 l -0.493361,-0.18757 -0.493361,-0.18758 0.003,-0.25156 0.003,-0.25157 0.171029,0.26997 0.171029,0.26998 0.423002,-0.423 0.423002,-0.423 -0.460131,0.11548 -0.46013,0.11549 0.07315,-0.75184 0.07315,-0.75183 -0.228692,0.29601 -0.228693,0.29602 0.10867,-0.33903 0.108669,-0.33904 -0.188726,-0.11664 -0.188725,-0.11663 v -0.22342 -0.22342 l 0.24668,0.33006 0.246681,0.33005 0.296016,-0.19366 0.296017,-0.19367 -0.278686,-0.17943 -0.278685,-0.17944 0.304528,-0.30452 0.304528,-0.30453 0.122166,0.12216 0.122166,0.12217 0.01999,-0.27957 0.01999,-0.27957 -0.03216,-0.60711 -0.03216,-0.60711 0.308185,-0.25577 0.308185,-0.25577 v -0.60167 -0.60166 l -0.326603,-0.36089 -0.326602,-0.3609 h 0.20386 0.203859 l 0.331182,0.44403 0.331182,0.44402 -0.101148,-0.33903 -0.101148,-0.33903 0.171261,-0.10585 0.171262,-0.10584 -0.223146,-0.59118 -0.223145,-0.59118 h -0.282947 -0.282947 l 0.45508,-0.39469 0.45508,-0.39469 h -0.194193 -0.194193 l -0.279713,-0.5427 -0.279713,-0.54269 -0.19494,-0.13913 -0.194939,-0.13913 0.226819,-0.60091 0.226819,-0.60092 h -0.278875 -0.278874 v -0.40633 -0.40634 l -0.197345,0.12197 -0.197344,0.12196 v -0.19254 -0.19255 l 0.246681,-0.11512 0.24668,-0.11511 -0.24668,-0.11512 -0.246681,-0.11512 v -0.19254 -0.19255 l 0.218487,0.13503 0.218486,0.13503 -0.133113,-0.4194 -0.133113,-0.4194 h 0.309315 0.309316 v -0.39469 -0.39469 h -0.394689 -0.394689 v -0.39469 -0.39468 H 30.22553 29.828963 l 0.08412,-0.67821 0.08412,-0.67821 -0.25412,0.0975 -0.25412,0.0975 -0.122744,-0.31986 -0.122744,-0.31987 -0.198738,0.12283 -0.198739,0.12282 v -0.29601 -0.29602 l 0.197345,-0.12197 0.197344,-0.12196 v -0.4606 -0.4606 l 0.294818,-0.11313 0.294817,-0.11314 -0.225002,-0.49382 -0.225003,-0.49383 -0.128134,0.0792 -0.128135,0.0792 0.01714,-0.43073 0.01714,-0.43073 0.156216,-0.45369 0.156215,-0.45369 -0.316931,-0.4837 -0.316931,-0.48369 h 0.117317 0.117318 l 0.296016,0.29601 0.296017,0.29602 0.429929,-0.0269 0.429929,-0.0269 -0.434402,-0.0843 -0.434401,-0.0843 0.159386,-0.43156 0.159386,-0.43156 -0.08678,-0.24669 -0.08678,-0.24668 h 0.312462 0.312462 v -0.18287 -0.18287 l -0.345353,-0.0922 -0.345353,-0.0922 0.461745,-0.14724 0.461745,-0.14724 -0.09122,-0.47717 -0.09122,-0.47716 0.271496,0.10418 0.271496,0.10419 -0.319369,-0.48742 -0.31937,-0.48742 h 0.180573 0.180572 l 0.265764,0.24668 0.265765,0.24668 -0.13792,-0.2445 -0.137919,-0.24449 0.328798,-0.69289 0.328798,-0.69289 h 0.20775 0.207749 l -0.119383,-0.11939 -0.119383,-0.11938 0.477972,-0.44297 0.477971,-0.44297 -0.112364,-0.11236 -0.112365,-0.11237 0.430189,-0.23023 0.430189,-0.23023 -0.09493,-0.36302 -0.09493,-0.36303 0.224344,0.0854 0.224344,0.0855 0.444025,-1.00367 0.444025,-1.00367 v -0.18194 -0.18194 h 0.208991 0.208991 l -0.110848,-0.17936 -0.110848,-0.17935 0.607704,-0.51135 0.607704,-0.51135 -0.16315,-0.0234 -0.16315,-0.0234 -0.140906,0.021 -0.140906,0.021 0.117036,-0.30499 0.117036,-0.30499 0.2808,0.10776 0.280801,0.10775 -0.120569,-0.19508 -0.120568,-0.19509 h 0.220637 0.220638 l -0.110591,-0.17894 -0.110591,-0.17894 0.444297,0.10941 0.444297,0.1094 -0.146296,-0.15899 -0.146296,-0.15898 0.244968,-0.30272 0.244969,-0.30272 -0.296017,0.15118 -0.296017,0.15119 0.394689,-0.30392 0.394689,-0.30392 0.232162,-0.19829 0.232163,-0.19829 0.06673,0.20018 0.06673,0.20018 0.391816,-0.36026 0.391816,-0.36025 0.716111,-0.43905 0.716111,-0.43905 0.79657,-0.86417 0.79657,-0.86418 0.316919,-0.61285 0.316919,-0.61286 1.533899,-2.32054 1.533899,-2.32054 1.53907,-2.82859 1.539069,-2.82859 0.434988,-1.21697 0.434988,-1.21697 2.062859,-0.7311 2.062858,-0.7311 2.66415,-0.72542 2.664149,-0.72542 2.072117,-0.54235 2.072116,-0.54236 1.677427,-0.50221 1.677428,-0.50221 0.690705,-0.13629 0.690706,-0.13628 2.170788,-0.64311 2.170789,-0.64311 2.762821,-0.79545 2.762822,-0.79546 2.960166,-0.78965 2.960166,-0.78965 2.072117,-0.51097 2.072116,-0.51097 2.072116,-0.60134 2.072117,-0.60134 0.936611,-0.26973 0.936611,-0.26972 -0.126129,0.52463 -0.126129,0.52463 -0.450417,0.90179 -0.450416,0.90179 -1.068145,1.76236 -1.068144,1.76236 -0.60323,1.67743 -0.603229,1.67742 -0.514128,1.12209 -0.514127,1.12208 v 0.23111 0.2311 l 0.345353,-0.1452 0.345352,-0.1452 2.66415,-0.63577 2.664149,-0.63578 5.426972,-1.4068 5.426972,-1.4068 2.56548,-0.69583 2.56547,-0.69583 3.05862,-0.80709 3.05861,-0.80708 0.10423,-0.0644 0.10423,-0.0644 4.04023,-1.07776 4.04023,-1.07777 4.93361,-1.30596 4.93361,-1.30596 4.2429,-1.15911 4.24291,-1.15911 1.48008,-0.42966 1.48008,-0.42965 5.03228,-1.37381 5.03229,-1.37381 5.42697,-1.39476 5.42697,-1.39476 2.96017,-0.97078 2.96016,-0.97079 0.83872,-0.48205 0.83871,-0.48206 v 0.60893 0.60893 l -0.71288,2.98117 -0.71289,2.98116 -0.46602,1.48878 -0.46603,1.48877 -3.34255,6.60235 -3.34255,6.60234 -0.81419,1.85098 -0.81418,1.85098 0.0567,0.0496 0.0567,0.0496 1.37864,-0.18831 1.37863,-0.1883 0.23096,-0.19168 0.23095,-0.19168 0.89426,-1.81662 0.89425,-1.81663 1.9912,-4.04556 1.99119,-4.04556 1.12928,-2.08003 1.12927,-2.08003 0.24068,-0.38678 0.24068,-0.38677 0.006,1.50515 0.006,1.50514 -0.59568,1.94838 -0.59568,1.94838 -0.79274,1.66164 -0.79273,1.66164 -1.2856,2.23905 -1.28559,2.23904 -0.2774,0.78625 -0.27741,0.78624 0.13926,-6.3e-4 0.13925,-6.2e-4 2.39046,-0.58724 2.39047,-0.58724 0.37235,-0.14007 0.37236,-0.14008 -0.54328,0.48126 -0.54329,0.48126 -0.0488,17.51435 -0.0487,17.51434 0.25038,-3e-5 0.25039,-3e-5 1.42704,-0.51825 1.42704,-0.51826 1.51976,-0.45919 1.51975,-0.45919 0.83329,-0.4026 0.8333,-0.40261 0.0921,0.0921 0.0921,0.0921 -1.75404,1.78604 -1.75404,1.78603 -0.9241,1.67235 -0.9241,1.67235 -0.41302,0.58004 -0.41302,0.58003 -1.28701,2.60268 -1.287,2.60268 -0.46245,0.61652 -0.46245,0.61652 -1.40006,2.90889 -1.40006,2.9089 -0.64472,0.29586 -0.64473,0.29586 1.31848,-0.0557 1.31847,-0.0557 -0.0544,0.10716 -0.0544,0.10716 -0.75856,1.28273 -0.75856,1.28274 -0.75223,0.92346 -0.75222,0.92345 v 0.17623 0.17623 l -1.13906,1.0711 -1.13907,1.07111 -0.58125,0.78938 -0.58125,0.78937 -0.89407,0.83872 -0.89408,0.83871 h -0.26822 -0.26821 l 0.11359,0.29602 0.11359,0.29602 -0.24049,0.0228 -0.24048,0.0228 -0.19735,0.0348 -0.19734,0.0348 -0.5427,0.27018 -0.5427,0.27018 v 0.12259 0.12258 l -0.85895,0.25362 -0.85896,0.25362 -0.36043,0.0529 -0.36044,0.0529 -0.14815,0.37793 -0.14815,0.37794 -0.0139,-0.2044 -0.0139,-0.20439 h -0.39469 -0.39468 v 0.15506 0.15505 h -0.67426 -0.67426 l -0.1001,-0.24668 -0.10009,-0.24668 -0.17078,0.24038 -0.17079,0.24038 -0.61195,0.0466 -0.61195,0.0466 0.11054,0.28806 0.11054,0.28806 -0.23569,-0.14566 -0.2357,-0.14567 -0.58894,0.12935 -0.58894,0.12935 0.0757,0.13195 0.0757,0.13195 -0.1767,0.39469 -0.1767,0.39469 0.0809,-0.43128 0.0809,-0.43128 -0.29035,-0.11142 -0.29035,-0.11141 -0.13187,0.003 -0.13187,0.003 0.29602,0.1913 0.29602,0.1913 -0.62026,0.003 -0.62025,0.003 -0.10885,0.28365 -0.10885,0.28365 0.23574,0.0805 0.23575,0.0804 -0.59204,-0.0801 -0.59203,-0.0801 0.29049,0.1987 0.29048,0.19871 -0.38916,0.12822 -0.38916,0.12822 -0.24668,0.0735 -0.24668,0.0735 v -0.19115 -0.19115 h -0.29601 -0.29602 l -0.0156,0.44402 -0.0156,0.44403 -0.0995,-0.24668 -0.0995,-0.24668 h -0.26628 -0.26627 l -0.12527,0.39469 -0.12527,0.39468 h -0.58568 -0.58567 l 0.22844,0.44403 0.22844,0.44402 -0.26097,-0.24668 -0.26097,-0.24668 h -0.45389 -0.45389 v 0.19735 0.19734 h -0.37824 -0.37825 l -0.11511,-0.24668 -0.11512,-0.24668 -0.11993,0.26111 -0.11993,0.26111 -0.48306,-0.45381 -0.48306,-0.45381 0.13074,0.34071 0.13074,0.34071 h 0.17004 0.17004 l -0.11553,0.30105 -0.11552,0.30105 -0.30507,-0.25171 -0.30506,-0.25172 -0.083,0.24668 -0.083,0.24668 h -0.27957 -0.27957 l -0.003,-0.24668 -0.003,-0.24668 -0.14499,0.20947 -0.14499,0.20947 -0.44891,-0.005 -0.44891,-0.005 0.11525,-0.30306 0.11525,-0.30306 -0.23308,0.23125 -0.23309,0.23126 -0.27197,-0.10436 -0.27196,-0.10437 -0.34536,0.15208 -0.34535,0.15208 -0.0987,0.0341 -0.0987,0.0341 -0.34831,0.15321 -0.3483,0.15321 -0.38228,-0.1 -0.38227,-0.1 -0.0745,0.22341 -0.0745,0.22341 -0.52703,-0.24013 -0.52702,-0.24013 v 0.51495 0.51495 l -0.67187,-0.10902 -0.67186,-0.10903 -0.53508,0.60053 -0.53508,0.60054 -0.12513,-0.17198 -0.12513,-0.17197 -0.36266,-0.062 -0.36266,-0.062 0.12928,0.40731 0.12927,0.40731 h -0.40179 -0.40179 l 0.11359,0.29602 0.11359,0.29602 h -0.20201 -0.20202 l -0.084,-0.24668 -0.084,-0.24668 -0.45235,0.88805 -0.45235,0.88805 -0.14586,0.0987 -0.14586,0.0987 -1.53525,2.76282 -1.53526,2.76282 -1.12562,1.7761 -1.12562,1.7761 -1.16298,2.03562 -1.16298,2.03562 -0.76821,1.22056 -0.76822,1.22057 -1.08532,1.97344 -1.08531,1.97345 -2.09336,3.09916 -2.09335,3.09915 -1.0854,1.7657 -1.08539,1.76569 -1.64684,1.79559 -1.64683,1.79558 -0.1786,-0.11038 -0.1786,-0.11038 v 0.21557 0.21556 l -0.64909,0.64909 -0.64908,0.64908 -0.33315,0.67642 -0.33314,0.67641 -0.004,-0.26182 -0.005,-0.26183 -0.54269,0.64496 -0.5427,0.64496 v 0.12432 0.12432 l -0.3295,0.3295 -0.32949,0.32949 -0.099,-0.24492 -0.099,-0.24492 -0.0156,0.54889 -0.0156,0.5489 -0.31338,0.12025 -0.31339,0.12026 -0.41783,0.0216 -0.41784,0.0215 -0.11294,0.47874 -0.11294,0.47873 z m 3.70565,-4.4914 h 0.26312 l -0.13156,-0.13157 -0.13156,-0.13156 -0.13156,0.13156 -0.13157,0.13157 z m -8.551593,-1.64454 0.131563,-0.13156 -0.131563,-0.13156 -0.131563,-0.13157 v 0.26313 0.26312 z m -0.822268,-0.52625 h 0.09867 v -0.0987 -0.0987 h -0.09867 -0.09867 v 0.0987 0.0987 z m -0.690706,-1.7761 h 0.263126 l -0.131563,-0.13156 -0.131563,-0.13157 -0.131563,0.13157 -0.131563,0.13156 z m -1.874772,-3.35486 h 0.09867 v -0.0987 -0.0987 h -0.09867 -0.09867 v 0.0987 0.0987 z m -1.677427,-0.59203 h 0.197344 v -0.1857 -0.18569 l -0.197344,-0.12197 -0.197344,-0.12197 v 0.30767 0.30766 z m -0.09867,-0.78938 h 0.09867 v -0.0987 -0.0987 h -0.09867 -0.09867 v 0.0987 0.0987 z m 0.493361,-0.19734 h 0.263126 l -0.131563,-0.13156 -0.131563,-0.13157 -0.131563,0.13157 -0.131563,0.13156 z m -0.88805,-0.39469 h 0.09867 v -0.0987 -0.0987 h -0.09867 -0.09867 v 0.0987 0.0987 z m 20.578545,-1.57875 h 0.162 l 0.26318,-0.72783 0.26319,-0.72782 0.62945,-0.99894 0.62944,-0.99894 1.05139,-2.07212 1.05138,-2.07211 1.92264,-3.5522 1.92263,-3.5522 1.23052,-2.17079 1.23052,-2.17079 0.78826,-1.38141 0.78826,-1.38141 1.22862,-2.26946 1.22862,-2.26946 1.14607,-2.07212 1.14608,-2.07212 1.18799,-2.07211 1.18799,-2.07212 0.66281,-0.9472 0.66282,-0.94719 -0.89477,-1.02286 -0.89477,-1.02286 v -0.25007 -0.25007 h -0.16977 -0.16976 l -1.20884,1.87484 -1.20884,1.87483 -0.62152,1.23334 -0.62153,1.23334 -0.69032,1.081 -0.69032,1.081 -2.27283,4.34597 -2.27284,4.34597 -0.33367,0.49337 -0.33368,0.49336 -1.24675,2.36813 -1.24675,2.36813 -0.33577,0.49336 -0.33578,0.49336 -2.32404,4.53893 -2.32404,4.53892 -0.1945,0.24668 -0.1945,0.24668 h -0.17318 -0.17318 v -0.48451 -0.48451 l -0.77444,-1.75986 -0.77444,-1.75987 -1.26688,-2.34836 -1.26688,-2.34836 -0.49222,-0.7849 -0.49222,-0.7849 -1.00282,-2.00902 -1.00283,-2.00901 -0.98441,-1.54319 -0.98441,-1.54318 -1.27056,-2.26946 -1.27056,-2.26946 -1.13626,-1.97345 -1.13626,-1.97344 -0.54466,-0.88805 -0.54466,-0.88805 -1.675935,-2.86149 -1.675935,-2.8615 -1.726856,-3.25618 -1.726857,-3.25618 -0.07398,-0.0786 -0.07398,-0.0786 -1.572357,0.62133 -1.572356,0.62134 H 88.7708 88.485585 l -1.352862,0.41823 -1.352862,0.41822 -3.157511,0.65912 -3.15751,0.65912 -2.632601,0.60266 -2.632602,0.60266 -0.395463,0.21164 -0.395464,0.21165 -0.360531,0.82184 -0.360531,0.82183 -0.13623,0.74004 -0.13623,0.74004 h 0.358322 0.358322 l 2.08111,-0.58721 2.081109,-0.58721 4.538922,-0.99735 4.538921,-0.99734 1.714563,-0.48756 1.714562,-0.48756 0.357554,0.01 0.357554,0.01 0.833991,1.71698 0.833992,1.71699 1.742117,2.86149 1.742118,2.8615 1.549833,2.66415 1.549832,2.66415 0.734661,1.18406 0.734659,1.18407 0.83942,1.48008 0.83943,1.48009 1.90813,3.15751 1.90813,3.15751 1.78616,3.15751 1.78616,3.15751 0.51727,0.98672 0.51727,0.98672 1.27457,2.66415 1.27457,2.66415 0.79821,1.2334 0.79821,1.23341 z m -22.716443,-0.65782 0.131563,-0.13156 -0.131563,-0.13157 -0.131563,-0.13156 v 0.26313 0.26312 z m -0.822268,-3.28907 h 0.09867 v -0.0987 -0.0987 h -0.09867 -0.09867 v 0.0987 0.0987 z m -0.789378,-1.38141 h 0.09867 v -0.0987 -0.0987 h -0.09867 -0.09867 v 0.0987 0.0987 z m -55.651123,-0.39469 h 0.09867 v -0.0987 -0.0987 h -0.09867 -0.09867 v 0.0987 0.0987 z m 54.838452,0 h 0.09867 l 0.121966,-0.19735 0.121966,-0.19734 h -0.09867 -0.09867 l -0.121965,0.19734 -0.121966,0.19735 z m -56.219862,-2.17079 h 0.09867 v -0.0987 -0.0987 h -0.09867 -0.09867 v 0.0987 0.0987 z m 7.301743,-0.19735 h 0.09867 v -0.0987 -0.0987 h -0.09867 -0.09867 v 0.0987 0.0987 z m 5.525643,-1.97344 h 0.09867 v -0.0987 -0.0987 h -0.09867 -0.09867 v 0.0987 0.0987 z m -14.998175,-0.19734 h 0.09867 v -0.0987 -0.0987 h -0.09867 -0.09867 v 0.0987 0.0987 z m 54.565729,-2.76283 h 0.263126 l -0.131563,-0.13156 -0.131563,-0.13156 -0.131563,0.13156 -0.131563,0.13156 z m -0.855159,-1.44719 0.131563,-0.13156 -0.131563,-0.13156 -0.131563,-0.13157 v 0.26313 0.26313 z m -27.365092,-0.13156 h 0.197345 v -0.30766 -0.30767 l -0.197345,0.12197 -0.197344,0.12196 v 0.1857 0.1857 z m -24.56938,-0.19734 h 0.09867 v -0.0987 -0.0987 h -0.09867 -0.09867 v 0.0987 0.0987 z m 82.406723,-0.53433 0.15056,-0.15637 0.70638,-1.41476 0.70638,-1.41476 v -0.1793 -0.1793 l 0.77054,-1.7608 0.77055,-1.76079 1.5853,-3.12248 1.5853,-3.12248 0.18791,-0.23238 0.18791,-0.23237 1.03358,-2.07212 1.03357,-2.07211 0.99846,-1.7761 0.99846,-1.7761 1.87098,-3.25618 1.87097,-3.25619 0.6825,-1.18406 0.6825,-1.18407 0.96186,-1.92026 0.96185,-1.92025 v -0.37438 -0.37438 l -0.3339,-0.27084 -0.33389,-0.27085 0.16837,0.29602 0.16838,0.29602 -0.531,-0.48389 -0.531,-0.48389 0.10223,-0.2664 0.10223,-0.2664 -0.18281,0.11298 -0.18281,0.11298 -0.61459,-0.89327 -0.61458,-0.89326 -0.67631,-1.42959 -0.67631,-1.42959 -0.0722,-0.39469 -0.0722,-0.39469 -0.52201,-1.0854 -0.52201,-1.08539 -0.0116,-0.39469 -0.0116,-0.39469 -0.70994,1.38141 -0.70995,1.38141 -0.95979,2.17079 -0.95979,2.17079 -0.91165,1.7761 -0.91164,1.7761 -0.81074,1.28274 -0.81073,1.28274 -0.24905,0.26077 -0.24905,0.26078 v 0.1949 0.19489 l -0.17957,-0.11098 -0.17958,-0.11098 -0.12601,1.72742 -0.12602,1.72743 -0.0441,0.49336 -0.0441,0.49336 -0.19298,-5.03228 -0.19297,-5.03228 v -17.26764 -17.26763 l -0.3694,-1.48009 -0.36941,-1.48008 -0.2853,-0.55869 -0.28531,-0.55869 -0.33201,0.12961 -0.33202,0.12962 -1.67742,0.46252 -1.67743,0.46252 -2.56306,0.71405 -2.56306,0.71404 -0.19976,0.20049 -0.19977,0.20048 0.0585,13.3595 0.0585,13.35949 0.20883,1.47813 0.20883,1.47814 0.47194,0.93131 0.47193,0.93132 0.56622,0.89284 0.56622,0.89283 0.25595,0.94062 0.25594,0.94062 0.40548,0.59203 0.40548,0.59203 0.23908,0.24669 0.23908,0.24668 h 0.23763 0.23763 l 0.34824,0.40152 0.34824,0.40152 -0.10171,0.38891 -0.1017,0.3889 0.23049,0.27772 0.23048,0.27772 0.0178,2.63206 0.0178,2.63206 -0.18952,0.46975 -0.18952,0.46974 -1.09373,-2.15079 -1.09374,-2.1508 -0.54665,-1.77248 -0.54664,-1.77247 -0.68078,-1.70098 -0.68077,-1.70097 -2.3787,-4.4167 -2.3787,-4.41671 -4.19182,-8.28846 -4.191816,-8.28847 -3.104522,-6.11767 -3.104521,-6.11768 -0.168925,-0.2091 -0.168925,-0.20909 -1.352992,-2.60119 -1.352991,-2.60118 -0.34903,1.10725 -0.34903,1.10725 -1.786245,3.5778 -1.786245,3.5778 -0.952016,2.14605 -0.952016,2.14605 -2.350644,4.36632 -2.350644,4.36631 -2.559645,5.03229 -2.559644,5.03228 -0.607684,0.98672 -0.607683,0.98672 -0.406201,1.0854 -0.406201,1.08539 -0.829341,1.38141 -0.829341,1.38141 -1.509036,2.8615 -1.509035,2.86149 -2.098826,3.98785 -2.098826,3.98785 -1.708059,2.9192 -1.708059,2.91921 -0.370259,0.52383 -0.370258,0.52382 v 0.20244 0.20244 l 0.640067,-0.18357 0.640066,-0.18357 h 0.899054 0.899054 l 2.75312,-0.70552 2.753121,-0.70552 0.986722,-0.2033 0.986722,-0.2033 0.296017,-0.13592 0.296016,-0.13593 2.269461,-4.5417 2.269461,-4.54169 0.716594,-1.27128 0.716595,-1.27127 1.082527,-2.07212 1.082527,-2.07211 1.624148,-3.0355 1.624148,-3.03549 0.702325,-1.09791 0.702324,-1.09792 0.619253,-0.81126 0.619252,-0.81126 1.501348,-2.94911 1.501348,-2.94911 0.882414,-1.6445 0.882413,-1.64451 0.395466,0.55911 0.395465,0.55911 0.998036,1.99322 0.998035,1.99322 1.070807,1.855 1.070807,1.855 0.644447,1.28274 0.644447,1.28273 0.842018,1.3924 0.842019,1.3924 0.884295,1.76511 0.884294,1.76511 0.509224,1.38142 0.509223,1.38141 0.777593,1.9069 0.777592,1.9069 1.471627,2.82936 1.471628,2.82937 1.34596,2.36813 1.34596,2.36813 0.66326,1.35046 0.66327,1.35045 1.86836,3.24584 1.86837,3.24584 v 0.0766 0.0766 l 1.60252,3.31957 1.60253,3.31956 0.77403,2.24244 0.77404,2.24244 0.60668,1.21109 0.60668,1.21109 0.20537,0.25504 0.20538,0.25504 z m -4.45568,-10.51695 h -0.0987 v -0.0987 -0.0987 h 0.0987 0.0987 v 0.0987 0.0987 z m -0.78938,-1.57876 h -0.0987 v -0.0987 -0.0987 h 0.0987 0.0987 v 0.0987 0.0987 z m 1.82099,-0.27513 -0.0707,0.0707 -0.34672,-0.78585 -0.34671,-0.78585 h -0.18307 -0.18306 v -0.46674 -0.46675 l -0.40604,-0.51619 -0.40604,-0.5162 -0.13666,0.0196 -0.13666,0.0196 -0.24668,-0.0234 -0.24668,-0.0234 v -0.64685 -0.64685 l -0.39469,-0.33794 -0.39469,-0.33794 -0.0234,-0.34729 -0.0234,-0.34728 0.0234,-0.14801 0.0234,-0.14801 h -0.19734 -0.19735 v -0.37357 -0.37358 l -0.31649,-0.12145 -0.31649,-0.12145 0.11689,-0.3046 0.11688,-0.3046 -0.19508,0.12057 -0.19508,0.12057 v -0.39469 -0.39469 l -0.19735,-0.12197 -0.19734,-0.12196 -0.0139,-0.43238 -0.0139,-0.43238 -0.16961,0.39469 -0.1696,0.39469 -0.0139,-0.37915 -0.0139,-0.37915 -0.31103,-0.34369 -0.31104,-0.34369 -0.0568,-0.71594 -0.0568,-0.71595 -0.44221,-0.47072 -0.44222,-0.47071 0.11822,-0.19127 0.11821,-0.19128 -0.29488,-0.11316 -0.29489,-0.11315 v -0.30221 -0.30221 h -0.2749 -0.2749 l -0.11979,-0.31216 -0.11978,-0.31216 v -0.47722 -0.47722 h -0.14835 -0.14835 l -0.42433,-0.83871 -0.42433,-0.83872 -0.9074,-1.94415 -0.90741,-1.94415 0.005,-0.12797 0.005,-0.12796 1.34659,2.56548 1.34659,2.56547 1.21741,2.17079 1.21741,2.17079 1.81979,3.5522 1.81979,3.5522 0.0739,0.29602 0.074,0.29601 0.1382,0.0987 0.1382,0.0987 0.659,0.96816 0.659,0.96815 0.37251,0.98037 0.37251,0.98037 z m -5.96522,-10.9735 h 0.0987 v -0.0987 -0.0987 h -0.0987 -0.0987 v 0.0987 0.0987 z m 2.99305,6.44659 -0.13156,0.13156 v -0.26313 -0.26312 l 0.13156,0.13156 0.13157,0.13156 z m 10.85308,-1.46364 -0.0995,0.24668 v -0.49336 -0.49336 l 0.0995,0.24668 0.0995,0.24668 z m -0.0115,-3.2603 -0.11923,0.11923 0.0156,-0.37824 0.0156,-0.37824 0.10365,0.25901 0.10365,0.25901 z m 0.20882,-3.44941 -0.0995,0.24668 v -0.49336 -0.49336 l 0.0995,0.24668 0.0995,0.24668 z m -10.88597,-4.39092 h -0.0987 v -0.0987 -0.0987 h 0.0987 0.0987 v 0.0987 0.0987 z m -8.48581,-4.34157 h -0.0987 v -0.0987 -0.0987 h 0.0987 0.0987 v 0.0987 0.0987 z m -0.19735,-0.39469 h -0.0987 v -0.0987 -0.0987 h 0.0987 0.0987 v 0.0987 0.0987 z M 100.186,177.4765 h -0.0987 v -0.0987 -0.0987 h 0.0987 0.0987 v 0.0987 0.0987 z m -0.394689,-0.78938 h -0.09867 v -0.0987 -0.0987 h 0.09867 0.09867 v 0.0987 0.0987 z m -0.394689,-0.78937 h -0.09867 v -0.0987 -0.0987 h 0.09867 0.09867 v 0.0987 0.0987 z m -0.592033,-0.98673 h -0.09867 v -0.0987 -0.0987 h 0.09867 0.09867 v 0.0987 0.0987 z m -0.197345,-0.39469 h -0.09867 v -0.0987 -0.0987 h 0.09867 0.09867 v 0.0987 0.0987 z M 98.4099,174.12165 h -0.09867 v -0.0987 -0.0987 h 0.09867 0.09867 v 0.0987 0.0987 z m -0.194632,-0.39469 h -0.0875 l -0.220277,-0.41159 -0.220276,-0.41159 0.0826,-0.0826 0.0826,-0.0826 0.225171,0.49419 0.22517,0.4942 z m -0.583099,-1.18407 h -0.08703 l -0.14081,-0.22784 -0.14081,-0.22783 0.227836,0.14081 0.227836,0.14081 v 0.087 0.087 z m -0.561211,-0.86474 -0.09238,0.0924 -0.123052,-0.32066 -0.123052,-0.32067 0.006,-0.13187 0.006,-0.13187 0.209433,0.36016 0.209433,0.36015 z m 16.929152,-0.71402 h -0.0987 v -0.0987 -0.0987 h 0.0987 0.0987 v 0.0987 0.0987 z m -17.350836,-0.19734 h -0.08196 l -0.379691,-0.64137 -0.37969,-0.64137 -0.549847,-1.08539 -0.549847,-1.0854 -0.142779,-0.0987 -0.14278,-0.0987 -0.305516,-0.69071 -0.305516,-0.6907 -0.642081,-1.43327 -0.642081,-1.43326 0.08668,-0.0867 0.08668,-0.0867 2.01519,4.03609 2.015191,4.03608 z m 17.382856,-2.51614 -0.0995,0.24668 v -0.49336 -0.49336 l 0.0995,0.24668 0.0995,0.24668 z m 8.7e-4,-2.87794 -0.13156,0.13156 v -0.26312 -0.26313 l 0.13156,0.13156 0.13156,0.13157 z m -0.002,-0.86785 -0.0983,0.24293 0.007,-0.59204 0.007,-0.59203 0.091,0.34911 0.091,0.34911 z m 10e-4,-1.18782 -0.0995,0.24668 v -0.49336 -0.49336 l 0.0995,0.24668 0.0995,0.24668 z m -21.542562,-0.83871 h -0.09867 v -0.0987 -0.0987 h 0.09867 0.09867 v 0.0987 0.0987 z m 21.510542,-0.19735 h -0.0987 v -0.0987 -0.0987 h 0.0987 0.0987 v 0.0987 0.0987 z m -21.707887,-0.19734 h -0.09867 v -0.0987 -0.0987 h 0.09867 0.09867 v 0.0987 0.0987 z m 21.707887,-0.98673 h -0.0987 v -0.0987 -0.0987 h 0.0987 0.0987 v 0.0987 0.0987 z m 0,-0.59203 h -0.0987 v -0.0987 -0.0987 h 0.0987 0.0987 v 0.0987 0.0987 z m -55.256436,51.30955 h 0.09867 v -0.0987 -0.0987 h -0.09867 -0.09867 v 0.0987 0.0987 z m -0.220638,-0.39469 h 0.09867 l 0.121965,-0.19735 0.121966,-0.19734 h -0.09867 -0.09867 l -0.121965,0.19734 -0.121966,0.19735 z m 0.911343,0 h 0.197345 v -0.19735 -0.19734 h -0.197345 -0.197344 v 0.19734 0.19735 z m 3.453528,-0.78938 h 0.09867 v -0.0987 -0.0987 h -0.09867 -0.09867 v 0.0987 0.0987 z m -0.592034,-0.19734 h 0.09867 v -0.0987 -0.0987 h -0.09867 -0.09867 v 0.0987 0.0987 z m 1.085395,-0.59204 h 0.263126 l -0.131563,-0.13156 -0.131563,-0.13156 -0.131563,0.13156 -0.131563,0.13156 z m 3.15751,-0.59203 h 0.263126 l -0.131563,-0.13156 -0.131563,-0.13157 -0.131563,0.13157 -0.131563,0.13156 z m 8.901612,-0.98672 h 0.176231 v -0.17623 -0.17623 l -0.285966,-0.10974 -0.285967,-0.10973 0.109736,0.28596 0.109735,0.28597 z m -5.448085,-0.19735 h 0.09867 v -0.0987 -0.0987 h -0.09867 -0.09867 v 0.0987 0.0987 z m -33.911213,-0.54269 0.09954,-0.24668 -0.09954,-0.24668 -0.09954,-0.24669 v 0.49337 0.49336 z m 40.02889,-0.0493 h 0.09867 v -0.0987 -0.0987 h -0.09867 -0.09867 v 0.0987 0.0987 z m -2.170789,-0.19734 h 0.09867 v -0.0987 -0.0987 h -0.09867 -0.09867 v 0.0987 0.0987 z m -5.130954,-0.78938 h 0.09867 v -0.0987 -0.0987 h -0.09867 -0.09867 v 0.0987 0.0987 z m -31.476433,-0.78938 h 0.197344 v -0.19734 -0.19735 h -0.197344 -0.197345 v 0.19735 0.19734 z m -0.04934,-0.78952 0.148008,-1.4e-4 0.03034,-0.52347 0.03034,-0.52347 -0.175329,0.27693 -0.17533,0.27693 -0.003,0.24668 -0.003,0.24668 z m 8.421763,-1.24058 2.777532,-0.96778 2.342348,-0.67476 2.342348,-0.67475 0.171242,-0.10584 0.171242,-0.10583 2.42002,-0.5597 2.42002,-0.5597 5.328299,-1.40066 5.328299,-1.40066 2.269461,-0.67215 2.269461,-0.67215 3.058838,-0.83408 3.058838,-0.83409 2.072117,-0.57759 2.072116,-0.57759 1.874772,-0.59892 1.874772,-0.59892 1.13473,-0.50473 1.13473,-0.50473 -0.0011,-0.3184 -0.0011,-0.31841 -0.218213,-0.78937 -0.218213,-0.78938 -0.224711,-0.14499 -0.224712,-0.14498 -0.481875,-0.003 -0.481875,-0.003 -3.366341,0.90096 -3.36634,0.90096 -2.861494,0.80011 -2.861494,0.80012 -4.144233,1.23342 -4.144232,1.23343 -3.946889,0.9403 -3.946888,0.9403 -4.885046,1.26004 -4.885047,1.26003 -0.936613,0.11841 -0.936614,0.11841 -0.475289,0.29743 -0.475289,0.29744 0.39891,-0.56773 0.398911,-0.56773 0.64191,-1.7761 0.641911,-1.7761 1.615067,-3.05884 1.615067,-3.05884 0.351975,-0.88805 0.351975,-0.88805 0.35707,-0.59203 0.357069,-0.59204 1.797286,-3.7699 1.797287,-3.7699 v -0.12765 -0.12765 H 55.99623 54.926214 l -0.656747,0.77075 -0.656748,0.77074 -1.318608,2.63345 -1.318608,2.63344 -1.55973,3.36113 -1.55973,3.36113 -0.818931,1.3578 -0.818932,1.35781 -0.121358,0.70804 -0.121358,0.70803 -0.877956,2.26946 -0.877956,2.26946 -0.413015,0.98673 -0.413014,0.98672 0.0071,0.44402 0.0071,0.44403 h -0.275141 -0.27514 v 0.39469 0.39469 H 42.660105 42.46276 v 0.37824 0.37824 l 0.23197,0.0773 0.23197,0.0773 z m -2.320532,0.38556 -0.131563,0.13157 v -0.26313 -0.26312 l 0.131563,0.13156 0.131563,0.13156 z m -6.907054,0.19735 0.131563,-0.13156 -0.131563,-0.13157 -0.131563,-0.13156 v 0.26313 0.26312 z m 1.578755,-1.57876 0.131563,-0.13156 -0.131563,-0.13156 -0.131563,-0.13157 v 0.26313 0.26313 z m -0.723596,-0.72359 h 0.263126 l -0.131563,-0.13157 -0.131563,-0.13156 -0.131563,0.13156 -0.131563,0.13157 z m 0.789377,0 h 0.197345 v -0.19735 -0.19734 h -0.197345 -0.197344 v 0.19734 0.19735 z m -2.466805,-0.19735 h 0.09867 v -0.0987 -0.0987 h -0.09867 -0.09867 v 0.0987 0.0987 z m 0.197345,-0.39469 h 0.09867 v -0.0987 -0.0987 h -0.09867 -0.09867 v 0.0987 0.0987 z m 1.590402,-0.19734 h 0.08703 v -0.087 -0.087 l -0.227836,-0.14081 -0.227835,-0.14081 0.14081,0.22783 0.14081,0.22784 z m 0.580386,-0.19735 h 0.09867 v -0.0987 -0.0987 h -0.09867 -0.09867 v 0.0987 0.0987 z m 0.394689,-0.59203 h 0.09867 v -0.0987 -0.0987 h -0.09867 -0.09867 v 0.0987 0.0987 z m -1.874772,-0.78938 h 0.263126 l -0.131563,-0.13156 -0.131563,-0.13156 -0.131563,0.13156 -0.131563,0.13156 z m -0.493361,-0.19734 h 0.09867 v -0.0987 -0.0987 h -0.09867 -0.09867 v 0.0987 0.0987 z M 137.58276,198.7897 h 0.26313 l -0.13156,-0.13157 -0.13157,-0.13156 -0.13156,0.13156 -0.13156,0.13157 z m 1.14638,-0.003 0.061,0.003 -0.12196,-0.19735 -0.12197,-0.19734 -0.23503,0.003 -0.23503,0.003 0.29601,0.1913 0.29602,0.1913 z m 0.56394,-0.0628 0.13157,-0.13156 -0.13157,-0.13156 -0.13156,-0.13156 v 0.26312 0.26313 z m 9.43964,-1.90766 h 0.0987 v -0.0987 -0.0987 h -0.0987 -0.0987 v 0.0987 0.0987 z m -0.16445,-0.46047 0.13156,-0.13156 -0.13156,-0.13156 -0.13156,-0.13157 v 0.26313 0.26312 z m -114.689991,-0.3289 h 0.09867 v -0.0987 -0.0987 h -0.09867 -0.09867 v 0.0987 0.0987 z m 116.482541,-0.0296 0.64136,0.0296 -0.0229,-0.44402 -0.0229,-0.44403 -0.088,0.33342 -0.088,0.33342 -0.53053,0.081 -0.53052,0.081 z M 35.863369,195.63219 h 0.08703 v -0.087 -0.087 l -0.227836,-0.14081 -0.227836,-0.14081 0.140811,0.22784 0.14081,0.22784 z m -2.001536,-0.21293 0.378244,0.0156 -0.119229,-0.11923 -0.119229,-0.11923 -0.259015,0.10365 -0.259014,0.10365 z m 115.462927,0.0156 h 0.0987 v -0.0987 -0.0987 h -0.0987 -0.0987 v 0.0987 0.0987 z M 34.514994,195.04015 h 0.115162 l -0.373836,-0.44402 -0.373835,-0.44403 -0.05144,-0.0822 -0.05144,-0.0822 v 0.21614 0.21614 l 0.310112,0.31011 0.310113,0.31011 z m 117.177896,0 h 0.0987 v -0.0987 -0.0987 h -0.0987 -0.0987 v 0.0987 0.0987 z m -118.817779,-0.21292 0.378244,0.0156 -0.119229,-0.11923 -0.119229,-0.11923 -0.259015,0.10365 -0.259014,0.10365 z m 119.311139,0.0156 h 0.26313 l -0.13157,-0.13156 -0.13156,-0.13157 -0.13156,0.13157 -0.13156,0.13156 z m 1.0854,0 h 0.0987 v -0.0987 -0.0987 h -0.0987 -0.0987 v 0.0987 0.0987 z m 0.59203,-0.19735 h 0.0987 v -0.0987 -0.0987 h -0.0987 -0.0987 v 0.0987 0.0987 z M 32.891557,194.44812 h 0.296016 v -0.19735 -0.19734 H 32.891557 32.59554 v 0.19734 0.19735 z m 0.09867,-1.38141 h 0.197344 v -0.1857 -0.1857 l -0.197344,-0.12196 -0.197345,-0.12197 v 0.30767 0.30766 z m 126.596443,-0.39469 h 0.0987 v -0.0987 -0.0987 h -0.0987 -0.0987 v 0.0987 0.0987 z m 2.76282,-0.19734 h 0.0987 v -0.0987 -0.0987 h -0.0987 -0.0987 v 0.0987 0.0987 z M 32.990229,191.48191 h 0.296017 l -0.296017,-0.1913 -0.296017,-0.1913 h -0.296016 -0.296017 l 0.296017,0.1913 0.296016,0.1913 z m -1.067573,-0.98068 h 0.05071 l -0.03368,-0.87016 -0.03368,-0.87016 -0.145576,0.22879 -0.145576,0.22879 -0.003,0.50981 -0.003,0.50981 0.131563,0.13156 0.131563,0.13156 z m 108.669614,-6.00368 0.83871,-0.1338 2.56548,-0.59644 2.56548,-0.59644 2.76282,-0.69659 2.76282,-0.6966 1.28274,-0.28159 1.28274,-0.28159 2.56547,-0.7097 2.56548,-0.70969 2.46681,-0.75267 2.4668,-0.75267 1.67743,-0.42905 1.67743,-0.42905 0.26499,-0.21429 0.26499,-0.21429 1.25501,-2.5045 1.255,-2.5045 0.86644,-1.46552 0.86644,-1.46552 0.51348,-1.12158 0.51347,-1.12157 -0.13709,0.002 -0.13709,0.002 -0.98672,0.30405 -0.98672,0.30405 -2.66415,0.69682 -2.66415,0.69682 -5.72299,1.44633 -5.72299,1.44632 -4.83494,1.31058 -4.83494,1.31059 -0.42905,0.28039 -0.42906,0.28039 -0.13595,0.44928 -0.13594,0.44928 -1.0915,2.26946 -1.09149,2.26946 -0.6623,0.98409 -0.6623,0.98409 v 0.24454 0.24455 l -0.39395,0.64614 -0.39395,0.64614 -7.4e-4,0.2719 -7.4e-4,0.2719 z m 0.34535,-1.69275 h -0.26313 l 0.13157,-0.13156 0.13156,-0.13157 0.13156,0.13157 0.13157,0.13156 z m 0.59203,-0.19735 h -0.26312 l 0.13156,-0.13156 0.13156,-0.13156 0.13157,0.13156 0.13156,0.13156 z m 0.88805,-0.31993 -0.59203,0.12801 0.29602,-0.17342 0.29601,-0.17343 0.59204,-0.12801 0.59203,-0.12801 -0.29602,0.17342 -0.29601,0.17342 z m 11.54465,-3.7701 -1.08539,0.097 -0.44403,-0.0893 -0.44402,-0.0893 v -1.5436 -1.5436 l 0.74004,-0.29561 0.74004,-0.29562 1.07188,-0.31785 1.07187,-0.31784 h 0.63022 0.63022 l 0.12334,0.6167 0.12334,0.6167 v 0.77768 0.77768 l -0.21422,0.40028 -0.21422,0.40028 -0.82184,0.35472 -0.82184,0.35471 z m 14.50481,-6.96125 h -0.0987 v -0.0987 -0.0987 h 0.0987 0.0987 v 0.0987 0.0987 z m -55.45377,11.64332 h 0.0987 v -0.0987 -0.0987 h -0.0987 -0.0987 v 0.0987 0.0987 z m -81.096909,-0.19735 h 0.08703 v -0.087 -0.087 l -0.227836,-0.14081 -0.227836,-0.14081 0.140811,0.22784 0.14081,0.22783 z m 80.899559,-0.19734 h 0.0987 v -0.0987 -0.0987 h -0.0987 -0.0987 v 0.0987 0.0987 z m -0.19734,-0.39469 h 0.0987 v -0.0987 -0.0987 h -0.0987 -0.0987 v 0.0987 0.0987 z m -81.404571,-1.97344 h 0.197345 v -0.1857 -0.1857 l -0.197345,-0.12196 -0.197344,-0.12197 v 0.30766 0.30767 z m 44.105749,-0.19735 h 0.09794 l 2.272478,-0.48132 2.272478,-0.48132 1.13244,-0.39627 1.13244,-0.39627 2.466805,-0.58956 2.466805,-0.58955 2.398111,-0.50155 2.398112,-0.50155 1.055415,-0.41355 1.055416,-0.41355 0.151478,-0.14723 0.151478,-0.14723 -1.023009,-1.86144 -1.023009,-1.86143 -0.878281,-1.7761 -0.87828,-1.7761 -0.790936,-1.33564 -0.790935,-1.33563 -0.169546,-0.10479 -0.169546,-0.10478 -2.223317,0.6162 -2.223317,0.6162 -1.045262,0.31143 -1.045261,0.31143 -0.385486,0.49007 -0.385485,0.49006 v 0.19523 0.19523 l -0.717969,1.60359 -0.717969,1.6036 -1.071245,1.63765 -1.071246,1.63765 -1.269624,2.54299 -1.269624,2.54299 v 0.21027 0.21027 z m -43.776841,-2.03922 0.131563,-0.13157 -0.131563,-0.13156 -0.131563,-0.13156 v 0.26312 0.26313 z m -0.230236,-0.7236 h 0.296017 v -0.19734 -0.19735 h -0.296017 -0.296016 v 0.19735 0.19734 z m 14.475366,-0.39469 h 0.36524 l 0.635788,-0.22164 0.635789,-0.22163 -0.06364,-15.94 -0.06364,-15.94001 -0.364297,-0.40242 -0.364298,-0.40243 -0.461422,0.21023 -0.461421,0.21024 -0.14792,0.81296 -0.147921,0.81296 0.03144,13.02473 0.03144,13.02473 0.0048,2.51614 0.0048,2.51614 z m 86.570423,-0.59203 h 0.0808 l -0.11686,-0.30453 -0.11685,-0.30453 -0.0941,0.0941 -0.0941,0.094 0.13008,0.21047 0.13008,0.21048 z m -80.963041,-0.84295 0.249634,-0.0958 3.351901,-0.82567 3.351901,-0.82567 0.740042,-0.19265 0.740041,-0.19265 v -0.31436 -0.31436 l 0.890621,-1.75015 0.890621,-1.75015 h -0.281383 -0.281383 l -3.224051,0.79573 -3.224051,0.79574 -1.726764,0.43463 -1.726764,0.43464 v 1.94825 1.94826 z m 80.528021,0.0267 0.42957,-0.0269 -0.44695,-0.0859 -0.44696,-0.0859 0.11419,-0.18475 0.11418,-0.18475 -0.29451,-0.2945 -0.2945,-0.29451 h -0.0976 -0.0976 l 0.29534,0.59204 0.29535,0.59203 z m 0.0349,-0.36782 h 0.0987 v -0.0987 -0.0987 h -0.0987 -0.0987 v 0.0987 0.0987 z m -98.47486,-0.39469 h 0.09867 v -0.0987 -0.0987 h -0.09867 -0.09867 v 0.0987 0.0987 z m 98.27751,-0.19734 h 0.0987 v -0.0987 -0.0987 h -0.0987 -0.0987 v 0.0987 0.0987 z m 4.26151,-1.38141 h 0.13879 l 0.95478,-1.82544 0.95479,-1.82543 1.18665,-2.4744 1.18664,-2.47439 1.11339,-1.96586 1.1134,-1.96585 1.86968,-3.74955 1.86968,-3.74954 0.61465,-1.03829 0.61466,-1.03829 1.89982,-3.79665 1.89982,-3.79665 0.15679,-0.19734 0.1568,-0.19734 1.97092,-3.94689 1.97092,-3.94689 0.99435,-2.17079 0.99436,-2.17079 1.96141,-3.94689 1.96141,-3.94688 0.9951,-2.07212 0.9951,-2.07212 2.48466,-4.13986 2.48466,-4.13987 v -0.2394 -0.2394 l -0.19327,-0.11944 -0.19327,-0.11945 -0.37875,0.20271 -0.37876,0.2027 -3.91756,0.99955 -3.91756,0.99955 -5.92034,1.6542 -5.92033,1.6542 -3.25618,0.89778 -3.25618,0.89778 -4.04556,1.09949 -4.04556,1.09949 -6.11768,1.5656 -6.11768,1.56561 -5.82166,1.55761 -5.82166,1.55762 -2.8861,0.8094 -2.8861,0.8094 -5.007676,1.27451 -5.007674,1.27452 -1.663579,0.31144 -1.663578,0.31145 -0.0652,0.0652 -0.0652,0.0652 0.840725,0.3554 0.840726,0.35541 1.262004,0.56654 1.262004,0.56654 1.466885,0.92924 1.466885,0.92923 -0.219586,0.0732 -0.219585,0.0732 -1.240323,-0.8081 -1.240324,-0.8081 -0.282258,0.0156 -0.282258,0.0156 0.197345,0.083 0.197344,0.083 -0.06724,0.96992 -0.06724,0.96993 1.424747,1.44768 1.424746,1.44768 0.504559,0.65868 0.504558,0.65869 0.604741,-0.0881 0.60474,-0.0881 3.946882,-1.12914 3.94689,-1.12914 1.93481,-0.67336 1.9348,-0.67336 1.61739,-0.40572 1.6174,-0.40571 4.53892,-1.26915 4.53892,-1.26914 4.53892,-1.20083 4.53892,-1.20082 1.87478,-0.57539 1.87477,-0.57538 1.47237,-0.30599 1.47238,-0.30599 1.88248,-0.57476 1.88248,-0.57477 2.96016,-0.81656 2.96017,-0.81656 1.72699,-0.87209 1.72699,-0.87209 h 0.40133 0.40133 l -0.71667,0.62924 -0.71666,0.62924 -0.98244,1.45591 -0.98244,1.45592 -1.56386,2.85013 -1.56385,2.85014 -1.69124,3.40251 -1.69124,3.40251 -0.27848,0.59203 -0.27848,0.59204 -1.21482,2.86149 -1.21483,2.86149 -0.40003,0.59204 -0.40003,0.59203 -0.39491,0.442 -0.3949,0.44201 -0.45789,-0.67385 -0.4579,-0.67385 -2.20451,-4.30708 -2.20452,-4.30707 -1.16174,-2.30163 -1.16173,-2.30163 -0.28042,-0.23273 -0.28042,-0.23272 -2.15449,0.5052 -2.15449,0.50521 -1.02274,0.40313 -1.02275,0.40313 -1.86221,0.2352 -1.86222,0.2352 v 0.26774 0.26773 l -0.18744,-0.11585 -0.18744,-0.11584 -0.20725,0.38724 -0.20725,0.38724 10e-5,0.65435 1.1e-4,0.65434 0.39739,1.04554 0.39739,1.04554 0.95381,1.91463 0.95382,1.91462 1.63943,3.15751 1.63944,3.15751 2.35994,4.6376 2.35995,4.63759 0.46251,0.81008 0.46251,0.81008 0.86412,2.05142 0.86413,2.05141 0.24875,0.6907 0.24875,0.69071 1.40098,2.91083 1.40098,2.91083 z m 0.91121,-2.72234 -0.0867,0.45288 -0.0269,-0.45696 -0.0269,-0.45696 -0.69232,-1.49843 -0.69232,-1.49843 0.0686,-0.0686 0.0686,-0.0686 0.73728,1.57111 0.73727,1.57111 z m -1.62052,-3.79003 h -0.0987 v -0.0987 -0.0987 h 0.0987 0.0987 v 0.0987 0.0987 z m -0.19734,-0.39469 h -0.0987 v -0.0987 -0.0987 h 0.0987 0.0987 v 0.0987 0.0987 z m -0.19734,-0.59203 h -0.0987 v -0.0987 -0.0987 h 0.0987 0.0987 v 0.0987 0.0987 z m -0.37017,-0.84679 -0.0716,0.0716 -0.44344,-1.09256 -0.44343,-1.09256 -0.76643,-1.52562 -0.76643,-1.52562 0.01,-0.20107 0.01,-0.20107 0.81026,1.57875 0.81026,1.57876 0.46134,1.16889 0.46134,1.1689 z m -2.59,-5.66558 h -0.0987 v -0.0987 -0.0987 h 0.0987 0.0987 v 0.0987 0.0987 z m -0.38667,-0.59203 h -0.0987 l -0.40271,-0.78938 -0.40271,-0.78937 h 0.0987 0.0987 l 0.40271,0.78937 0.40271,0.78938 z m -0.96306,-1.7761 h -0.067 l -0.23223,-0.5427 -0.23223,-0.54269 0.29923,0.38307 0.29922,0.38307 v 0.15963 0.15962 z m -0.62371,-1.18406 h -0.0987 v -0.0987 -0.0987 h 0.0987 0.0987 v 0.0987 0.0987 z m -0.16809,-0.45684 -0.096,0.0959 -0.19189,-0.36225 -0.19188,-0.36226 -0.3074,-0.74004 -0.30739,-0.74004 h 0.0853 0.0853 l 0.50996,1.00634 0.50995,1.00635 z m -1.21333,-2.30599 h -0.0987 v -0.0987 -0.0987 h 0.0987 0.0987 v 0.0987 0.0987 z m -0.19734,-0.39468 h -0.0987 v -0.0987 -0.0987 h 0.0987 0.0987 v 0.0987 0.0987 z m -0.19734,-0.39469 h -0.0987 v -0.0987 -0.0987 h 0.0987 0.0987 v 0.0987 0.0987 z m -0.1919,-0.39469 h -0.0808 l -0.13008,-0.21048 -0.13008,-0.21047 0.0941,-0.0941 0.0941,-0.0941 0.11686,0.30453 0.11686,0.30453 z m -0.40014,-0.78938 h -0.0987 v -0.0987 -0.0987 h 0.0987 0.0987 v 0.0987 0.0987 z m -0.39469,-0.78938 h -0.0987 v -0.0987 -0.0987 h 0.0987 0.0987 v 0.0987 0.0987 z m -0.98672,-1.7761 h -0.0987 v -0.0987 -0.0987 h 0.0987 0.0987 v 0.0987 0.0987 z m -0.19734,-0.39469 h -0.0987 v -0.0987 -0.0987 h 0.0987 0.0987 v 0.0987 0.0987 z m -0.19735,-0.39469 h -0.0987 v -0.0987 -0.0987 h 0.0987 0.0987 v 0.0987 0.0987 z m -0.15487,-0.47004 -0.0924,0.0924 -0.12306,-0.32067 -0.12305,-0.32067 0.006,-0.13187 0.006,-0.13186 0.20944,0.36015 0.20943,0.36015 z m -0.43716,-0.91137 h -0.0987 v -0.0987 -0.0987 h 0.0987 0.0987 v 0.0987 0.0987 z m -0.19189,-0.39468 h -0.0808 l -0.13008,-0.21048 -0.13008,-0.21047 0.094,-0.0941 0.094,-0.0941 0.11686,0.30453 0.11686,0.30453 z m -0.36725,-0.85516 -0.13157,0.13156 v -0.26313 -0.26312 l 0.13157,0.13156 0.13156,0.13156 z m -0.23024,-0.52626 h -0.0987 v -0.0987 -0.0987 h 0.0987 0.0987 v 0.0987 0.0987 z m -0.19734,-0.39468 h -0.0987 v -0.0987 -0.0987 h 0.0987 0.0987 v 0.0987 0.0987 z m -0.98672,-1.97345 h -0.0987 v -0.0987 -0.0987 h 0.0987 0.0987 v 0.0987 0.0987 z m -0.19735,-0.39469 h -0.0987 v -0.0987 -0.0987 h 0.0987 0.0987 v 0.0987 0.0987 z m -0.19734,-0.39469 h -0.0987 v -0.0987 -0.0987 h 0.0987 0.0987 v 0.0987 0.0987 z m -0.36302,-0.59203 h -0.067 l -0.23223,-0.5427 -0.23223,-0.54269 0.29923,0.38307 0.29922,0.38307 v 0.15962 0.15963 z m -0.61206,-1.18407 h -0.087 l -0.14081,-0.22783 -0.14081,-0.22784 0.22783,0.14081 0.22784,0.14081 v 0.087 0.087 z m -24.482352,-4.53892 h -0.09867 v -0.0987 -0.0987 h 0.09867 0.09867 v 0.0987 0.0987 z m -64.893419,36.44294 0.131563,-0.13157 -0.131563,-0.13156 -0.131563,-0.13156 v 0.26312 0.26313 z m -0.230236,-1.31563 h 0.09867 v -0.0987 -0.0987 h -0.09867 -0.09867 v 0.0987 0.0987 z m 112.358267,-0.30336 0.32539,-0.13293 1.67743,-0.4579 1.67743,-0.45791 2.07211,-0.43582 2.07212,-0.43583 2.56547,-0.78679 2.56548,-0.7868 6.01901,-1.44289 6.019,-1.4429 0.64272,-0.1613 0.64271,-0.1613 0.0921,-2.32125 0.0921,-2.32125 -0.53749,0.11835 -0.53749,0.11835 -1.08539,0.30119 -1.0854,0.30118 -3.45353,0.87809 -3.45352,0.87808 -3.83947,0.96873 -3.83946,0.96873 -1.09415,0.21993 -1.09414,0.21994 -1.6689,0.47633 -1.6689,0.47634 h -0.53192 -0.53192 l -0.20558,0.58972 -0.20558,0.58972 -0.59301,0.86191 -0.59301,0.86192 -0.50198,1.13507 -0.50199,1.13507 0.11717,0.18957 0.11716,0.18957 z m -112.929743,-0.73681 0.119229,-0.11923 -0.103649,-0.25902 -0.103649,-0.25901 -0.01558,0.37824 -0.01558,0.37825 z m 19.535168,-1.13062 h 0.129689 l 2.293974,-0.50562 2.293974,-0.50563 2.072117,-0.49833 2.072116,-0.49833 1.429793,-0.26844 1.429792,-0.26845 0.31223,-0.17473 0.31223,-0.17473 0.759425,-1.39957 0.759425,-1.39958 -0.725348,0.11518 -0.725348,0.11517 -1.282738,0.44655 -1.282739,0.44656 -1.144166,0.41525 -1.144166,0.41525 -2.503628,0.49816 -2.503629,0.49817 -1.384488,0.13815 -1.384488,0.13816 -0.06114,0.96165 -0.06114,0.96165 0.104282,0.27175 0.104282,0.27176 z m 2.102824,-7.90394 2.220125,-0.33382 3.256182,-0.6225 3.256183,-0.62249 1.091752,-0.27979 1.091752,-0.27978 1.67107,-0.85183 1.671069,-0.85183 0.96063,-1.4384 0.96063,-1.4384 -0.120826,-0.12083 -0.120825,-0.12082 -1.422124,0.25415 -1.422124,0.25414 -2.377846,0.54491 -2.377847,0.5449 -1.578755,0.4076 -1.578755,0.4076 -1.578756,0.38681 -1.578755,0.38681 -1.874772,0.62863 -1.874772,0.62862 -0.24668,0.073 -0.246681,0.073 v 1.35209 1.35208 z m 95.891481,0.0101 0.0672,-4e-5 1.57875,-0.29406 1.57876,-0.29407 4.14423,-1.00871 4.14423,-1.00871 1.7761,-0.45175 1.7761,-0.45175 2.46681,-0.71875 2.4668,-0.71874 0.83872,-0.31633 0.83871,-0.31632 0.003,-1.50261 0.003,-1.50261 0.11899,-0.44402 0.119,-0.44403 -0.46704,0.004 -0.46705,0.004 -1.97344,0.47006 -1.97344,0.47006 -2.36814,0.62627 -2.36813,0.62627 -3.45353,0.89222 -3.45352,0.89222 -1.67159,0.43635 -1.67158,0.43635 -0.12211,0.58106 -0.12211,0.58105 -0.9377,1.72676 -0.9377,1.72676 z M 29.43803,159.32081 h 0.197344 v -0.19734 -0.19734 H 29.43803 29.240685 v 0.19734 0.19734 z m 22.053237,-4.83685 0.345353,-0.14282 1.578755,-0.54584 1.578755,-0.54583 1.184067,-0.2347 1.184066,-0.23469 2.565478,-0.76723 2.565477,-0.76723 1.973444,-0.50002 1.973444,-0.50002 2.638556,-0.83874 2.638556,-0.83874 0.452211,-1.02253 0.452212,-1.02253 0.806784,-1.18804 0.806785,-1.18805 v -0.20817 -0.20817 H 73.948005 73.6608 l -3.709019,1.06528 -3.709019,1.06528 -3.749544,1.03182 -3.749544,1.03181 -3.058838,0.8676 -3.058839,0.8676 -0.740041,0.11937 -0.740042,0.11936 v 2.36402 2.36403 z M 31.70749,153.20314 h 0.09867 v -0.0987 -0.0987 h -0.09867 -0.09867 v 0.0987 0.0987 z m 124.17582,-3.84545 1.13159,-0.14138 1.18721,-0.26105 1.18721,-0.26105 1.0854,-0.29211 1.08539,-0.29211 2.07212,-0.39459 2.07211,-0.3946 1.97345,-0.33013 1.97344,-0.33014 0.29602,-0.0365 0.29601,-0.0365 0.32646,-1.47784 0.32646,-1.47784 0.0162,-0.88805 0.0162,-0.88805 -0.12186,-0.45499 -0.12186,-0.45499 -1.10885,0.13462 -1.10885,0.13462 -3.05883,0.7533 -3.05884,0.7533 -1.94358,0.31059 -1.94357,0.31059 -0.42081,0.22521 -0.42081,0.22521 -0.39844,0.49626 -0.39844,0.49626 -1.03605,1.94505 -1.03606,1.94505 v 0.41158 0.41158 z m -104.441379,-3.54866 0.394689,-0.11282 1.645503,-0.39304 1.645504,-0.39305 4.274829,-1.20185 4.274828,-1.20185 6.190365,-1.75604 6.190364,-1.75604 h 0.267173 0.267174 l 0.610387,-1.2334 0.610387,-1.2334 0.604558,-0.94489 0.604558,-0.94489 -0.123896,-0.1239 -0.123897,-0.1239 -2.81232,0.72037 -2.812321,0.72038 -2.861494,0.79578 -2.861494,0.79578 -2.269461,0.56789 -2.26946,0.56789 -5.130955,1.42244 -5.130955,1.42244 -0.751008,0.22645 -0.751009,0.22645 -0.03837,2.03301 -0.03837,2.033 z m -14.011453,-1.0917 h 0.09867 v -0.0987 -0.0987 h -0.09867 -0.09867 v 0.0987 0.0987 z M 159.636,140.0849 l 0.34536,-0.13574 1.77609,-0.46086 1.7761,-0.46086 2.96017,-0.83778 2.96017,-0.83779 0.83871,-0.21035 0.83871,-0.21036 v -2.34438 -2.34438 l -0.24668,0.0931 -0.24668,0.0931 -3.94689,1.10656 -3.94688,1.10655 -0.84888,0.21325 -0.84888,0.21325 -0.0989,0.33501 -0.0989,0.33501 -0.77956,1.97344 -0.77957,1.97345 5.8e-4,0.26779 5.8e-4,0.26779 z m -111.61475,-1.36716 0.26317,-0.0795 0.986723,-0.24099 0.986722,-0.241 1.677427,-0.48638 1.677427,-0.48639 1.973445,-0.60135 1.973444,-0.60135 2.26946,-0.54262 2.269461,-0.54261 2.170788,-0.5442 2.170789,-0.5442 2.565477,-0.73281 2.565478,-0.73281 2.960166,-0.81718 2.960166,-0.81719 1.381411,-0.33013 1.38141,-0.33013 0.534417,-0.2215 0.534416,-0.22149 0.602774,-0.83211 0.602775,-0.8321 1.251439,-2.11977 1.251438,-2.11976 0.50312,-0.98672 0.50312,-0.98672 0.559243,-1.02215 0.559244,-1.02215 -0.121868,-0.12187 -0.121869,-0.12187 -3.427796,0.92472 -3.427797,0.92472 -3.256183,0.86473 -3.256182,0.86473 -1.184067,0.37973 -1.184066,0.37973 -2.66415,0.71392 -2.664149,0.71391 -3.256183,0.88932 -3.256183,0.88932 -2.072116,0.60567 -2.072116,0.60567 -0.959634,0.21946 -0.959634,0.21946 -0.444043,1.22725 -0.444043,1.22726 -1.490679,2.24782 -1.49068,2.24782 -0.754891,1.45854 -0.754892,1.45853 -0.06745,0.14814 -0.06745,0.14814 z m 11.314457,-4.85435 h -0.09867 v -0.0987 -0.0987 h 0.09867 0.09867 v 0.0987 0.0987 z m 6.975455,-2.96017 h -0.736725 l -0.307207,-0.4386 -0.307207,-0.4386 v -0.82228 -0.82227 l 0.345353,-0.41292 0.345352,-0.41292 1.874772,-0.4965 1.874772,-0.49649 0.215443,-5e-4 0.215444,-5e-4 0.228581,0.76294 0.228582,0.76294 v 0.81127 0.81126 l -0.444025,0.29053 -0.444025,0.29053 -1.176192,0.30606 -1.176192,0.30605 z m 14.794443,-2.24109 -0.07367,0.36632 -0.142178,-0.36149 -0.142178,-0.3615 v -0.22067 -0.22067 l 0.215852,0.21585 0.215851,0.21585 z m 24.112675,113.74068 h -0.26312 l 0.13156,-0.13156 0.13156,-0.13157 0.13156,0.13157 0.13157,0.13156 z M 5.098886,242.13968 4.967323,242.27125 v -0.26313 -0.26312 l 0.131563,0.13156 0.1315629,0.13156 z m 101.599484,-0.3289 h -0.0987 v -0.0987 -0.0987 h 0.0987 0.0987 v 0.0987 0.0987 z m -7.104404,-1.18407 h -0.09867 v -0.0987 -0.0987 h 0.09867 0.09867 v 0.0987 0.0987 z m -94.4906084,-0.64137 -0.09025,0.34535 v -0.6907 -0.69071 l 0.09025,0.34536 0.09025,0.34535 z m 93.1091984,-0.5427 h -0.09867 v -0.0987 -0.0987 h 0.09867 0.09867 v 0.0987 0.0987 z m -0.394689,-0.39468 h -0.09867 v -0.0987 -0.0987 h 0.09867 0.09867 v 0.0987 0.0987 z M 5.0543486,238.65327 H 4.967323 v -0.19735 -0.19734 h 0.2089911 0.2089911 l -0.1219656,0.19734 -0.1219655,0.19735 z m 93.3356474,-0.63359 -0.276113,0.25446 v -0.19348 -0.19348 l 0.210474,-0.13008 0.210474,-0.13008 0.06564,0.0691 0.06564,0.0691 z m -93.3979135,-0.31566 -0.1516236,0.40987 -0.038891,-1.50641 -0.038891,-1.50641 H 5.0623445 5.362012 v 0.20899 0.20899 l -0.1938335,-0.1198 -0.1938336,-0.11979 0.084681,1.00734 0.084681,1.00734 z m 0.2712571,0.15987 h -0.098672 v -0.0987 -0.0987 h 0.098672 0.098672 v 0.0987 0.0987 z M 109.85588,237.27186 h -0.0987 v -0.0987 -0.0987 h 0.0987 0.0987 v 0.0987 0.0987 z M 5.0092997,234.70638 H 4.8539319 l -0.031701,-0.64137 -0.031701,-0.64137 0.173198,0.39469 0.1731979,0.39469 0.01387,0.24668 0.01387,0.24668 z m 1.6683415,-0.0658 -0.1315629,0.13156 v -0.26313 -0.26312 l 0.1315629,0.13156 0.131563,0.13156 z m 86.9583038,-4.09403 -0.235034,0.0156 -0.113538,-0.18371 -0.113538,-0.18371 0.231055,-0.1428 0.231055,-0.1428 -0.130393,0.21098 -0.130394,0.21098 0.247911,0.1 0.24791,0.1 z m -0.653016,-0.7738 h -0.263126 l 0.131563,-0.13156 0.131563,-0.13157 0.131563,0.13157 0.131563,0.13156 z m -0.09867,-0.78938 h -0.09867 v -0.0987 -0.0987 h 0.09867 0.09867 v 0.0987 0.0987 z m -0.953832,-0.85516 -0.131563,0.13156 v -0.26312 -0.26313 l 0.131563,0.13157 0.131563,0.13156 z m -0.197344,-2.17079 -0.131563,0.13157 v -0.26313 -0.26313 l 0.131563,0.13157 0.131563,0.13156 z m -2.006335,-1.71032 h -0.09867 v -0.0987 -0.0987 h 0.09867 0.09867 v 0.0987 0.0987 z m -0.592033,-1.38141 h -0.09867 v -0.0987 -0.0987 h 0.09867 0.09867 v 0.0987 0.0987 z M 34.27297,222.27366 H 34.1743 v -0.0987 -0.0987 h 0.09867 0.09867 v 0.0987 0.0987 z m 4.93361,-0.39469 h -0.09867 v -0.0987 -0.0987 h 0.09867 0.09867 v 0.0987 0.0987 z m 3.749543,-1.97344 h -0.09867 v -0.0987 -0.0987 h 0.09867 0.09867 v 0.0987 0.0987 z m -0.522935,-0.30279 -0.0691,0.0656 -0.254461,-0.27612 -0.254461,-0.27611 h 0.193478 0.193479 l 0.13008,0.21047 0.13008,0.21048 z m 0.325591,-0.0919 h -0.09867 v -0.0987 -0.0987 h 0.09867 0.09867 v 0.0987 0.0987 z m 45.562564,-0.74271 -0.17335,0.10129 -0.38159,-0.13861 -0.38159,-0.13861 0.232019,-0.14339 0.232018,-0.1434 0.322922,0.18072 0.322922,0.18071 z m -43.885136,-0.24401 h -0.263126 l 0.131563,-0.13157 0.131563,-0.13156 0.131562,0.13156 0.131563,0.13157 z m 41.442325,-2.76282 h -0.197344 v -0.209 -0.20899 l 0.197344,0.12197 0.197344,0.12196 v 0.087 0.087 z m -34.403708,-0.46047 -0.131563,0.13156 v -0.26313 -0.26312 l 0.131563,0.13156 0.131563,0.13156 z m 0.986722,-0.39469 -0.131563,0.13156 v -0.26313 -0.26312 l 0.131563,0.13156 0.131563,0.13156 z m 31.626813,-0.41349 h -0.331141 l 0.220078,-0.3524 0.220078,-0.3524 h 0.137609 0.137609 l -0.02655,0.3524 -0.02654,0.3524 z M 30.128737,213.9852 h -0.09867 v -0.0987 -0.0987 h 0.09867 0.09867 v 0.0987 0.0987 z m 25.074386,0 h -0.08703 l -0.121966,-0.19735 -0.121965,-0.19734 h 0.208991 0.208991 v 0.19734 0.19735 z m 27.823965,-0.91922 -0.285966,0.10974 0.109736,-0.28597 0.109735,-0.28597 h 0.176231 0.176231 v 0.17624 0.17623 z m -0.602083,-0.0675 h -0.09867 v -0.0987 -0.0987 h 0.09867 0.09867 v 0.0987 0.0987 z M 82.11734,212.6038 h -0.208991 l 0.121965,-0.19734 0.121966,-0.19734 h 0.08702 0.08703 v 0.19734 0.19734 z m -51.199227,-0.39468 h -0.09867 v -0.0987 -0.0987 h 0.09867 0.09867 v 0.0987 0.0987 z m 51.112201,-0.19735 h -0.09867 v -0.0987 -0.0987 h 0.09867 0.09867 v 0.0987 0.0987 z m -17.728106,-1.44719 -0.131563,0.13156 v -0.26312 -0.26313 l 0.131563,0.13156 0.131563,0.13157 z m -32.397373,-0.52625 h -0.09867 v -0.0987 -0.0987 h 0.09867 0.09867 v 0.0987 0.0987 z m 36.114026,0 h -0.09867 v -0.0987 -0.0987 h 0.09867 0.09867 v 0.0987 0.0987 z m 0.481715,-0.19735 h -0.208992 l 0.121966,-0.19734 0.121966,-0.19735 h 0.08702 0.08703 v 0.19735 0.19734 z m -35.330274,-1.37199 -0.188573,0.2866 0.09425,-0.56691 0.09424,-0.56691 0.08759,-0.0876 0.08759,-0.0876 0.13008,0.21048 0.13008,0.21047 H 33.384918 33.16428 l 0.0973,0.15743 0.0973,0.15743 z m 0.214616,-4.15365 h -0.197345 v -0.19734 -0.19735 h 0.197345 0.197344 v 0.19735 0.19734 z m 1.282738,0 h -0.09867 v -0.0987 -0.0987 h 0.09867 0.09867 v 0.0987 0.0987 z m -0.164453,-0.85516 -0.131563,0.13156 v -0.26312 -0.26313 l 0.131563,0.13156 0.131563,0.13157 z m 1.841881,-1.01961 -0.197345,0.12196 v -0.30766 -0.30766 h 0.197345 0.197344 v 0.18569 0.1857 z m 97.685486,-0.49336 h -0.19735 v -0.19735 -0.19734 h 0.19735 0.19734 v 0.19734 0.19735 z m 0.49336,-0.59204 h -0.0987 v -0.0987 -0.0987 h 0.0987 0.0987 v 0.0987 0.0987 z M 34.272968,200.96048 h -0.09867 v -0.0987 -0.0987 h 0.09867 0.09867 v 0.0987 0.0987 z M 136.00401,200.5658 h -0.26313 l 0.13157,-0.13157 0.13156,-0.13156 0.13156,0.13156 0.13157,0.13157 z M 33.297892,200.36845 h -0.08702 l -0.140811,-0.22783 -0.14081,-0.22784 0.227836,0.14081 0.227836,0.14081 v 0.087 0.087 z m 104.284868,-0.19734 h -0.26312 l 0.13156,-0.13157 0.13156,-0.13156 0.13157,0.13156 0.13156,0.13157 z M 30.326079,199.57907 h -0.09867 v -0.0987 -0.0987 h 0.09867 0.09867 v 0.0987 0.0987 z m 111.400921,0 h -0.26313 l 0.13156,-0.13156 0.13157,-0.13156 0.13156,0.13156 0.13156,0.13156 z m 4.83494,-0.98672 h -0.0987 v -0.0987 -0.0987 h 0.0987 0.0987 v 0.0987 0.0987 z m -114.065072,-1.7761 h -0.09867 v -0.0987 -0.0987 h 0.09867 0.09867 v 0.0987 0.0987 z m 121.128642,-1.29542 -0.35386,0.13474 0.24339,-0.24522 0.24339,-0.24521 0.11047,0.11047 0.11047,0.11047 z m 1.2016,0.11136 h -0.0987 l 0.12197,-0.19735 0.12197,-0.19734 h 0.0987 0.0987 l -0.12197,0.19734 -0.12196,0.19735 z m 0.91134,-0.39469 h -0.19734 v -0.29602 -0.29602 h 0.19734 0.19734 v 0.29602 0.29602 z m 3.05884,-0.59204 h -0.0987 v -0.0987 -0.0987 h 0.0987 0.0987 v 0.0987 0.0987 z m -126.464876,-1.0525 -0.131563,0.13156 v -0.26312 -0.26313 l 0.131563,0.13156 0.131563,0.13157 z m -2.795712,-1.31563 h -0.09867 v -0.0987 -0.0987 h 0.09867 0.09867 v 0.0987 0.0987 z m 2.072116,-0.59203 h -0.197344 v -0.19735 -0.19734 h 0.197344 0.197344 v 0.19734 0.19735 z m -0.657815,-0.46047 -0.131563,0.13156 v -0.26313 -0.26312 l 0.131563,0.13156 0.131563,0.13156 z m -0.230235,-0.7236 h -0.09867 v -0.0987 -0.0987 h 0.09867 0.09867 v 0.0987 0.0987 z m 0.03289,-1.0525 -0.131563,0.13156 v -0.26313 -0.26312 l 0.131563,0.13156 0.131563,0.13156 z m -2.006335,-0.92094 h -0.09867 v -0.0987 -0.0987 h 0.09867 0.09867 v 0.0987 0.0987 z m 1.414302,-4.01267 -0.131563,0.13156 v -0.26313 -0.26312 l 0.131563,0.13156 0.131563,0.13156 z m 0.592033,-3.5522 -0.131563,0.13156 v -0.26312 -0.26313 l 0.131563,0.13156 0.131563,0.13157 z m -0.789378,-0.78938 -0.131563,0.13156 v -0.26312 -0.26313 l 0.131563,0.13156 0.131563,0.13157 z m -0.427579,-0.32891 h -0.09867 v -0.0987 -0.0987 h 0.09867 0.09867 v 0.0987 0.0987 z m 0.624924,-0.46047 -0.131563,0.13157 v -0.26313 -0.26313 l 0.131563,0.13157 0.131563,0.13156 z m -0.230235,-1.11828 h -0.09867 v -0.0987 -0.0987 h 0.09867 0.09867 v 0.0987 0.0987 z m -0.394689,-0.98672 h -0.09867 v -0.0987 -0.0987 h 0.09867 0.09867 v 0.0987 0.0987 z m 1.480083,-0.78938 h -0.263126 l 0.131563,-0.13156 0.131563,-0.13157 0.131563,0.13157 0.131563,0.13156 z m 0.526252,-2.63126 -0.131563,0.13156 v -0.26312 -0.26313 l 0.131563,0.13156 0.131563,0.13157 z M 31.3128,171.15544 h -0.197344 l 0.296017,-0.19131 0.296016,-0.1913 h 0.197345 0.197344 l -0.296017,0.1913 -0.296016,0.19131 z m -0.361798,-0.45443 -0.131563,0.13156 v -0.26312 -0.26313 l 0.131563,0.13156 0.131563,0.13157 z m -0.592033,-3.5522 -0.131563,0.13156 v -0.26312 -0.26313 l 0.131563,0.13156 0.131563,0.13157 z m -1.019613,-1.11829 h -0.09867 v -0.0987 -0.0987 h 0.09867 0.09867 v 0.0987 0.0987 z m 0.176524,-0.39468 h -0.03562 l -0.119786,-0.31216 -0.119786,-0.31216 v -0.3669 -0.3669 l 0.1871,-0.11564 0.187101,-0.11563 -0.03169,0.79469 -0.03169,0.7947 z m -0.669885,-1.57876 H 28.58287 l 0.131563,-0.13156 0.131563,-0.13157 0.131563,0.13157 0.131563,0.13156 z m 0.718827,-0.4557 -0.126793,0.12679 v -0.24188 -0.24188 l -0.176666,0.10919 -0.176666,0.10918 -0.113157,-0.29488 -0.113157,-0.29489 h 0.166987 0.166987 l 0.249629,0.30079 0.24963,0.30079 z m -0.685631,-2.70483 -0.131868,-0.003 0.296017,-0.1913 0.296016,-0.1913 -0.24668,-0.003 -0.246681,-0.003 v -0.19734 -0.19735 h 0.274903 0.274903 l 0.107325,0.27969 0.107325,0.27968 -0.299696,0.11501 -0.299696,0.115 z m 0.436872,-3.94387 h -0.09867 l 0.121965,-0.19734 0.121966,-0.19735 h 0.09867 0.09867 l -0.121965,0.19735 -0.121966,0.19734 z m 3.772837,-6.51236 h -0.09867 v -0.0987 -0.0987 h 0.09867 0.09867 v 0.0987 0.0987 z m 4.341577,-6.70971 h -0.09867 v -0.0987 -0.0987 h 0.09867 0.09867 v 0.0987 0.0987 z m 1.03126,-0.59204 h -0.07743 l -0.108773,-0.10877 -0.108774,-0.10877 0.393813,-0.82862 0.393813,-0.82861 0.341605,-0.39469 0.341604,-0.39469 0.731892,-1.33271 0.731893,-1.33272 0.483345,-0.52153 0.483345,-0.52154 v 0.10339 0.10339 l -0.318007,0.76414 -0.318007,0.76414 -1.231017,1.87527 -1.231017,1.87527 -0.323575,0.26854 -0.323575,0.26855 0.108146,0.17498 0.108146,0.17498 z m 54.432319,-21.11585 h -0.108473 v -0.10847 -0.10847 l 0.298269,-0.57679 0.298268,-0.57679 0.491109,-0.72369 0.49111,-0.72369 -0.0027,0.66891 -0.0027,0.66891 -0.121061,0.45193 -0.12106,0.45193 -0.55715,0.28811 -0.55715,0.28811 z"
           id="path392" /></g><path
         style="display:inline;fill:#ff0000;stroke-width:2.20534"
         d="m 402.74671,760.98591 c -2.57525,-5.98632 -4.68226,-11.32336 -4.68226,-11.86007 0,-0.53671 -1.39827,-4.32236 -3.10725,-8.41255 -1.70899,-4.09016 -3.11283,-8.31813 -3.11966,-9.39546 -0.007,-1.07731 -0.93226,-2.56592 -2.05651,-3.30802 -3.11022,-2.05291 -43.71911,-78.79861 -50.31447,-95.08799 -6.26231,-15.46681 -37.81945,-74.32789 -40.85525,-76.20411 -1.01771,-0.62899 -5.33595,5.77779 -9.59608,14.23728 -4.26013,8.45949 -11.60587,21.35333 -16.32386,28.65298 -4.71798,7.29964 -17.1039,30.01792 -27.52425,50.48505 l -18.9461,37.21298 -17.73496,4.05057 c -9.75423,2.22781 -18.3631,3.42242 -19.13082,2.6547 -0.76773,-0.76772 0.16768,-3.78213 2.07868,-6.69868 4.64568,-7.0902 30.73632,-55.84241 53.8868,-100.6913 10.33073,-20.01349 21.20007,-40.6422 24.15408,-45.84157 2.95401,-5.19937 11.61728,-22.80125 19.2517,-39.1153 l 13.88076,-29.6619 26.05452,51.24469 c 14.32999,28.18458 33.39443,65.12217 42.36542,82.08353 8.97099,16.96136 18.30601,36.76125 20.74448,43.99976 9.85722,29.26071 16.1651,33.9399 14.69821,10.90317 -0.59019,-9.26895 -2.10585,-15.51071 -4.1502,-17.09141 -1.77126,-1.36953 -6.17519,-7.94829 -9.78651,-14.61945 l -6.56603,-12.12939 -0.70067,-56.48599 -0.70066,-56.486 14.13174,-3.54978 c 7.77246,-1.95238 15.70299,-4.15272 17.6234,-4.88965 6.92507,-2.6574 8.18262,12.84265 8.1953,101.012 0.007,51.67026 0.82941,85.45705 2.079,85.45705 1.13668,0 1.57935,-3.22532 0.98369,-7.16737 -0.73627,-4.87285 0.39458,-9.63838 3.53243,-14.88607 2.53848,-4.24528 8.78571,-16.40224 13.88273,-27.01545 5.09703,-10.61321 9.88562,-19.29675 10.64135,-19.29675 0.7557,0 3.09452,4.50501 5.19731,10.01113 2.10282,5.50613 6.3182,12.97615 9.3675,16.60006 l 5.54421,6.58893 -12.69984,22.54478 c -23.15434,41.10363 -42.2742,77.5134 -47.45021,90.35908 -2.81024,6.9744 -5.79714,12.68073 -6.63751,12.68073 -0.84037,0 -3.63498,-4.89789 -6.21021,-10.88421 z m -7.23851,-38.40702 c -1.62641,-3.03524 -12.16355,-22.91647 -23.41586,-44.1805 -11.25232,-21.26404 -21.49773,-39.30401 -22.76758,-40.08882 -1.59294,-0.98449 -1.61577,-0.15873 -0.0736,2.66319 1.22935,2.24957 9.94781,19.96859 19.37435,39.37561 9.42655,19.40703 17.9427,35.62327 18.92479,36.03608 0.98209,0.41282 3.32652,3.73036 5.20984,7.37231 1.88333,3.64195 3.93745,6.10849 4.56472,5.48123 0.62728,-0.62727 -0.1902,-3.62387 -1.81662,-6.6591 z M 335.1473,608.73958 c -6.75917,-13.65863 -12.85975,-24.26352 -13.55684,-23.56643 -1.16062,1.16062 10.62404,25.70499 20.4807,42.65595 8.42415,14.48741 4.94413,4.89278 -6.92386,-19.08952 z m 68.88759,-20.43857 c -0.52751,-2.74325 -0.97913,-1.01812 -1.00361,3.83364 -0.0245,4.85175 0.40712,7.09623 0.9591,4.98773 0.55198,-2.1085 0.57201,-6.07812 0.0445,-8.82137 z"
         id="path401"
         transform="scale(0.26458333)" /><path
         style="display:inline;fill:#ff0000;fill-opacity:1;stroke-width:2.20534"
         d="m 480.95657,612.63064 c -3.30583,-7.63398 -17.55871,-36.85376 -31.67305,-64.93284 -22.06772,-43.90154 -25.25214,-51.54725 -22.73332,-54.58224 1.61101,-1.94115 5.16384,-3.52937 7.89517,-3.52937 2.73133,0 9.18522,-1.48861 14.34197,-3.30802 16.24944,-5.73313 16.26275,-5.72311 31.35749,23.6125 7.61862,14.80628 15.02006,27.26987 16.44763,27.69687 1.42757,0.427 5.36873,-5.48471 8.75814,-13.13712 11.62188,-26.23919 33.99664,-68.59016 40.72676,-77.08762 6.89452,-8.70504 5.59804,-10.95077 -3.08918,-5.35104 -5.01963,3.23562 -18.95516,7.34802 -100.81687,29.75128 -26.07818,7.13687 -58.56916,16.25614 -72.20217,20.26506 l -24.78729,7.28893 -7.74152,-7.50338 c -10.17588,-9.86284 -10.46789,-14.77694 -0.57416,-9.66201 6.78052,3.50545 6.99665,3.49964 4.00435,-0.1076 -1.73966,-2.09717 -7.58904,-6.06241 -12.99863,-8.81164 l -9.83562,-4.9986 19.61467,-4.86191 c 25.21525,-6.25014 99.20378,-25.94482 193.2572,-51.4423 40.92116,-11.09354 74.98264,-19.58953 75.69221,-18.87998 0.70955,0.70956 -1.09645,5.10538 -4.01337,9.7685 -2.9169,4.66312 -28.51634,54.3771 -56.88769,110.47552 -28.37133,56.09842 -52.23987,101.99712 -53.0412,101.99712 -0.80133,0 -3.731,-5.70632 -6.51039,-12.68072 -5.38548,-13.51397 -30.50067,-62.30095 -32.07208,-62.30095 -1.52848,0 5.43209,15.56091 13.31525,29.76727 12.26281,22.09902 24.18188,51.82869 21.75276,54.25781 -1.4317,1.43168 -4.23319,-2.57309 -8.18706,-11.70352 z m -33.2719,-87.75896 c -5.18503,-11.49834 -6.54296,-10.14041 -1.83779,1.83779 1.99548,5.07999 4.1249,8.7396 4.73205,8.13245 0.60714,-0.60714 -0.69527,-5.09375 -2.89426,-9.97024 z m -10.76583,-21.30713 c -1.86577,-3.44281 -3.43204,-5.00569 -3.48061,-3.47306 -0.10068,3.17762 4.84091,11.76472 6.06551,10.54013 0.44407,-0.44407 -0.71914,-3.62425 -2.5849,-7.06707 z"
         id="path402"
         transform="scale(0.26458333)" /><path
         style="display:inline;fill:#ff0000;stroke-width:2.20534"
         d="m 265.9207,640.10086 c 3.91829,-6.9744 9.46602,-17.34533 12.3283,-23.04651 6.04908,-12.04878 5.18794,-11.36349 19.64775,-15.63565 l 11.20214,-3.30969 9.56404,18.51572 c 5.26023,10.18364 9.15091,18.90341 8.64596,19.37727 -1.0747,1.00852 -63.60756,16.77959 -66.53167,16.77959 -1.08937,0 1.22519,-5.70633 5.14348,-12.68073 z"
         id="path403"
         transform="scale(0.26458333)" /><path
         style="fill:#999999;stroke-width:2.20534"
         d="m 157.68204,494.91673 c 0,-1.29142 13.54705,-25.31747 18.9365,-33.58438 0.24635,-0.37788 25.11424,-7.53747 55.26199,-15.91019 30.14775,-8.37272 58.0394,-16.15799 61.98145,-17.3006 3.94205,-1.14262 7.16737,-1.76015 7.16737,-1.37229 0,0.38785 -3.87054,7.48989 -8.6012,15.78231 -6.32725,11.09109 -9.64838,14.87954 -12.56213,14.32975 -3.34352,-0.63089 -3.51938,-0.21536 -1.12822,2.66581 2.42139,2.91761 1.92385,3.62521 -3.42661,4.87327 -15.76408,3.67718 -108.78372,28.98009 -114.87247,31.24725 -1.51618,0.56455 -2.75668,0.23563 -2.75668,-0.73093 z m 75.94077,-27.32939 c 4.25115,-1.61628 5.65693,-3.7171 5.65693,-8.45381 0,-8.47153 -1.0154,-9.07657 -10.98548,-6.54589 -9.02719,2.29134 -12.02359,6.25463 -9.86668,13.05046 1.44232,4.54433 6.62199,5.20878 15.19523,1.94924 z"
         id="path404"
         transform="scale(0.26458333)" /><path
         style="fill:#999999;stroke-width:2.20534"
         d="m 168.20713,516.26295 c 0.76404,-5.20578 2.44556,-6.80368 8.99076,-8.54366 38.17111,-10.14746 85.963,-22.96827 89.13877,-23.91267 3.66655,-1.09034 3.69005,-0.71986 0.39127,6.16913 -3.44807,7.20076 -4.30831,7.55141 -49.11035,20.01821 -25.08045,6.97899 -46.66944,12.68532 -47.97554,12.68073 -1.36563,-0.005 -1.97537,-2.72936 -1.43491,-6.41174 z"
         id="path405"
         transform="scale(0.26458333)" /><path
         style="fill:#999999;stroke-width:2.20534"
         d="m 168.70875,548.75253 v -7.46584 l 41.11772,-11.56421 c 22.61475,-6.36031 41.35394,-11.29419 41.64264,-10.96418 0.28871,0.33001 -1.75059,4.15808 -4.53177,8.50682 -4.83633,7.56222 -6.53095,8.32012 -38.88596,17.39121 -18.6061,5.21643 -35.06977,9.95188 -36.58595,10.52323 -1.86705,0.70357 -2.75668,-1.37054 -2.75668,-6.42703 z"
         id="path406"
         transform="scale(0.26458333)" /><path
         style="fill:#999999;stroke-width:2.20534"
         d="m 168.70875,573.38923 c 0,-2.42588 0.24811,-4.41725 0.55134,-4.42528 0.30323,-0.008 14.28741,-3.48144 31.07594,-7.7187 16.78854,-4.23726 31.44938,-7.70411 32.57965,-7.70411 1.13028,0 0.52173,2.34014 -1.35232,5.2003 -4.38151,6.68703 -15.52123,11.37422 -37.17772,15.64302 -22.87185,4.50837 -25.67689,4.39964 -25.67689,-0.99523 z"
         id="path407"
         transform="scale(0.26458333)" /><path
         style="fill:#999999;stroke-width:1.10267"
         d="m 167.05475,630.17943 v -6.69068 l 17.36707,-4.27881 c 9.5519,-2.35335 18.23905,-4.50482 19.30478,-4.78104 1.62131,-0.42022 1.35123,0.75019 -1.65401,7.16796 l -3.5917,7.67019 -15.71307,3.80152 -15.71307,3.80153 z"
         id="path408"
         transform="scale(0.26458333)" /><path
         style="fill:#999999;stroke-width:1.10267"
         d="m 167.05475,603.76266 c 0,-3.55181 0.27959,-3.85313 4.13502,-4.45643 15.83014,-2.47711 25.32394,-4.65711 34.31435,-7.87941 5.68219,-2.03657 10.98143,-3.70286 11.7761,-3.70286 0.9954,0 0.58567,1.53724 -1.31722,4.94187 -2.19097,3.92008 -3.59988,5.14366 -6.81408,5.91777 -14.48585,3.48881 -39.56342,9.04337 -40.71583,9.01836 -0.83092,-0.018 -1.37834,-1.54285 -1.37834,-3.8393 z"
         id="path409"
         transform="scale(0.26458333)" /><path
         style="fill:#999999;stroke-width:1.10267"
         d="m 145.82832,603.43703 c -0.53915,-77.09893 -0.44315,-82.95537 1.37834,-84.08021 3.96455,-2.44827 4.16869,0.23886 4.66306,61.38214 l 0.48293,59.72663 -2.62488,1.19597 c -1.44369,0.65779 -2.84963,1.19598 -3.12433,1.19598 -0.2747,0 -0.6235,-17.73923 -0.77512,-39.42051 z"
         id="path410"
         transform="scale(0.26458333)" /><path
         style="fill:#999999;stroke-width:1.10267"
         d="m 502.30198,669.59733 c 0.0931,-2.19569 3.26119,-4.51263 8.58207,-6.27642 3.22325,-1.06845 5.58268,-2.22042 5.24317,-2.55993 -0.33951,-0.33951 -2.60703,0.0394 -5.03893,0.84198 -2.43191,0.8026 -4.65414,1.22678 -4.9383,0.94262 -0.28416,-0.28416 0.75174,-2.38326 2.302,-4.66466 1.55026,-2.28141 4.71637,-8.41023 7.03581,-13.61961 2.31944,-5.20937 5.0356,-9.9296 6.0359,-10.4894 3.79521,-2.12391 106.39944,-28.82109 107.30122,-27.91932 0.28061,0.28061 -1.38609,3.88355 -3.70377,8.00653 -2.3177,4.12298 -6.78984,12.42972 -9.93811,18.45943 l -5.72413,10.96311 -8.66213,2.36571 c -4.76417,1.30114 -15.60896,4.39729 -24.09953,6.88034 -16.21258,4.74133 -69.62359,17.89662 -72.66099,17.89662 -0.97314,0 -1.75357,-0.37215 -1.73428,-0.827 z m 60.40459,-22.51426 c 4.47564,-1.38934 6.06827,-5.01377 5.08483,-11.57181 -0.85763,-5.71912 -1.82326,-5.90142 -12.84081,-2.42423 l -7.47414,2.35888 v 6.37061 c 0,4.05148 0.50176,6.58211 1.37834,6.95163 1.70136,0.71719 8.95607,-0.16535 13.85178,-1.68508 z"
         id="path411"
         transform="scale(0.26458333)" /><path
         style="fill:#999999;stroke-width:1.10267"
         d="m 518.80699,614.79465 c 0,-0.69924 3.86602,-8.1652 7.70197,-14.87385 2.05884,-3.60068 2.82291,-3.95175 15.15151,-6.96169 12.44149,-3.0375 71.25943,-17.842 75.83562,-19.08785 2.0856,-0.5678 2.18565,-0.14807 1.84253,7.72969 -0.3264,7.49404 -0.60307,8.38613 -2.75667,8.88849 -23.54385,5.492 -50.95159,12.35637 -59.18146,14.82223 -5.76146,1.72626 -16.1817,4.47443 -23.1561,6.10704 -6.9744,1.63261 -13.30098,3.21306 -14.05906,3.5121 -0.75809,0.29905 -1.37834,0.23777 -1.37834,-0.13616 z"
         id="path412"
         transform="scale(0.26458333)" /><path
         style="fill:#999999;stroke-width:1.10267"
         d="m 541.76791,571.91126 c 1.92676,-3.41403 3.50319,-6.92986 3.50319,-7.81296 0,-0.8831 0.41225,-1.86041 0.9161,-2.17181 1.49173,-0.92194 69.06057,-18.30939 71.15156,-18.30939 1.6509,0 1.87107,0.95532 1.58829,6.89169 l -0.32828,6.8917 -9.37271,3.08123 c -8.96846,2.94833 -57.59436,15.2566 -66.63115,16.86578 l -4.3302,0.77108 z"
         id="path413"
         transform="scale(0.26458333)" /><path
         style="fill:#999999;stroke-width:1.10267"
         d="m 558.50316,537.54203 c 0,-2.21408 9.51049,-18.5844 11.58737,-19.94522 1.3383,-0.87688 6.34951,-2.28529 11.13602,-3.12979 4.78652,-0.8445 13.85828,-2.8448 20.15948,-4.44512 14.21253,-3.60955 17.07656,-3.43993 17.58585,1.04154 0.44865,3.94784 -1.96777,16.01358 -3.20706,16.01358 -2.12828,0 -32.1281,5.8114 -39.61891,7.67476 -10.59709,2.63605 -17.64275,3.75034 -17.64275,2.79025 z"
         id="path414"
         transform="scale(0.26458333)" /><path
         style="fill:#999999;stroke-width:1.10267"
         d="m 576.14591,502.20437 c 0,-0.16521 1.49905,-4.22598 3.33121,-9.02394 l 3.33122,-8.72357 17.27934,-4.71833 c 9.50364,-2.59508 17.92864,-4.96748 18.72222,-5.27201 1.10965,-0.42581 1.44287,1.35559 1.44287,7.71353 v 8.26722 l -8.5457,2.33507 c -4.70014,1.2843 -14.62418,3.99723 -22.05343,6.02874 -7.42925,2.03152 -13.50773,3.5585 -13.50773,3.39329 z"
         id="path415"
         transform="scale(0.26458333)" /><path
         style="display:inline;fill:#999999;stroke-width:1.10267"
         d="m 137.32876,743.51089 c -1.18711,-1.33727 -1.25925,-1.92743 -0.27567,-2.25529 0.73271,-0.24424 1.3322,-1.40078 1.3322,-2.57009 0,-1.16931 2.23291,-7.6811 4.96202,-14.47064 2.72911,-6.78954 4.96202,-13.24437 4.96202,-14.34407 0,-1.0997 1.16545,-3.85036 2.5899,-6.11257 1.42444,-2.2622 8.04195,-15.27765 14.70559,-28.92321 6.66363,-13.64556 13.1429,-25.71337 14.39837,-26.81735 1.41533,-1.24455 3.54739,-1.87301 5.61119,-1.654 l 3.32852,0.35322 -15.38845,30.87481 c -8.46365,16.98114 -16.63815,34.10012 -18.16555,38.04217 -1.5274,3.94205 -3.50849,8.28382 -4.40242,9.64837 -1.76848,2.69955 -1.46457,3.00793 1.47283,1.4945 1.05309,-0.54258 18.78559,-5.09089 39.40555,-10.10737 20.61996,-5.01647 43.94146,-11.04279 51.82556,-13.39181 27.98912,-8.33918 62.63735,-17.52461 64.8685,-17.19697 2.86252,0.42035 5.01789,7.30203 2.74435,8.76217 -2.89179,1.85719 -13.88417,5.62187 -28.46801,9.74975 -46.93206,13.28388 -64.68535,18.15011 -86.00838,23.57517 -24.13873,6.14143 -46.86757,12.75058 -53.77603,15.63712 -4.50971,1.88427 -3.75401,1.92309 -5.72209,-0.29391 z"
         id="path416"
         transform="scale(0.26458333)" /><path
         style="display:inline;fill:#999999;stroke-width:1.10267"
         d="m 403.26526,827.36381 c -1.87412,-2.92718 -5.42458,-9.71533 -7.88991,-15.0848 -6.05301,-13.18343 -12.56356,-24.66378 -42.92659,-75.69438 -14.25346,-23.95554 -28.32936,-48.1454 -31.27977,-53.75524 -2.95041,-5.60985 -5.9597,-10.19434 -6.68732,-10.18778 -0.72761,0.007 -3.80395,0.77397 -6.83629,1.70534 -3.03235,0.93137 -14.33113,3.63891 -25.1084,6.01675 -10.77726,2.37785 -22.15593,5.08386 -25.28591,6.01337 -8.54218,2.53675 -9.73236,2.3351 -8.6427,-1.46431 2.42331,-8.4496 1.73952,-8.12951 30.91888,-14.47345 21.73376,-4.72517 35.48699,-8.27647 38.68885,-9.99005 1.08076,-0.57841 2.4503,-1.05165 3.04342,-1.05165 0.59312,0 4.28715,6.07848 8.20895,13.50773 3.9218,7.42925 10.23324,18.71785 14.02542,25.08578 11.70009,19.64713 30.86161,52.8983 37.49047,65.05763 3.4716,6.36792 8.60045,15.65988 11.39747,20.6488 6.42889,11.46694 11.74731,23.15469 11.74731,25.81592 0,5.70909 3.89096,0.66819 12.67189,-16.41692 5.22091,-10.15837 12.5108,-23.92798 16.19978,-30.59914 3.68897,-6.67116 10.66947,-19.57242 15.51224,-28.66946 8.64039,-16.23081 12.03099,-22.21315 22.38572,-39.49718 l 5.1656,-8.62237 1.89586,3.10901 c 1.04272,1.70996 2.67281,3.75039 3.62242,4.53428 1.53804,1.26965 1.33287,2.01027 -1.87903,6.78315 -1.98308,2.94684 -8.21799,13.71812 -13.85536,23.93618 -5.63737,10.21807 -15.88581,28.62248 -22.7743,40.89869 -11.01786,19.63531 -26.73129,48.75319 -33.96841,62.94543 l -2.43279,4.7708 z"
         id="path417"
         transform="scale(0.26458333)" /></g></g></svg>
